<svg xmlns="http://www.w3.org/2000/svg" viewBox="0 0 284.9 263.6" preserveAspectRatio="xMinYMax" width="286" height="265"><g data-name="レイヤー 2"><path d="M7.2 3.3l23 30V4.2a1.4 1.4 0 112.9 0v33.2a1.4 1.4 0 01-1 1.3 1.5 1.5 0 01-1.6-.4l-23-30v29.1A1.4 1.4 0 016 38.8a1.4 1.4 0 01-1.4-1.4V4.2a1.4 1.4 0 012.6-.9zM42.3 5.3c3.4 0 5.7 2.5 5.7 6.3S45.6 18 42.2 18s-5.6-2.5-5.6-6.3 2.3-6.3 5.6-6.3zm0 11.2c3.2 0 4.3-2.6 4.3-4.9s-1.2-5-4.3-5-4.2 2.7-4.2 5 1.1 4.9 4.2 4.9zM60.1 5.7a.7.7 0 01.4.9l-5 10.7a.7.7 0 01-.6.4.7.7 0 01-.7-.4l-5-10.7a.7.7 0 01.3-1 .7.7 0 011 .4l4.3 9.4L59.2 6a.7.7 0 011-.3zM66.9 5.4c2.7 0 4.8 2 5.2 5.2a.6.6 0 01-.2.5.7.7 0 01-.5.3h-6.9a.7.7 0 01-.7-.8.7.7 0 01.7-.6h6A3.7 3.7 0 0067 6.8C64 6.8 63 9.4 63 11.7s1.1 4.9 4.2 4.9A5.5 5.5 0 0071 15a.7.7 0 011 1 6.9 6.9 0 01-4.7 2c-3.4 0-5.6-2.5-5.6-6.3s2.1-6.3 5.3-6.3zM75.2 6.2V17a.7.7 0 01-.7.7.7.7 0 01-.7-.7V6.2a.7.7 0 01.7-.7.7.7 0 01.7.7zM82 9.8V17a.7.7 0 01-.7.7.7.7 0 01-.7-.7V9.8c0-1.5-.5-2.5-1.3-2.9a2 2 0 00-2.2.5.7.7 0 01-1 0 .7.7 0 010-1 3.5 3.5 0 013.7-.8c1.4.6 2.2 2 2.2 4.2zm6.6 0V17a.7.7 0 01-.7.7.7.7 0 01-.7-.7V9.8c0-1.5-.5-2.4-1.3-2.8a2.3 2.3 0 00-2.5.6.7.7 0 01-1-1 3.7 3.7 0 014-1c.8.4 2.2 1.4 2.2 4.2zM91.6 0a.7.7 0 01.7.7v15.5h2.2a4.6 4.6 0 004.7-4.6 4.7 4.7 0 00-1.5-3.8 4.5 4.5 0 00-3.7-.7.7.7 0 01-.8-.6.7.7 0 01.6-.8 5.8 5.8 0 014.8 1 6 6 0 012 4.9 6 6 0 01-6 6h-3a.7.7 0 01-.7-.7V.7a.7.7 0 01.7-.7zM107.1 5.4c2.8 0 4.9 2 5.2 5.2a.7.7 0 01-.1.5.7.7 0 01-.6.3h-6.8a.7.7 0 01-.7-.8.7.7 0 01.7-.6h6a3.7 3.7 0 00-3.6-3.2c-2.9 0-4 2.6-4 4.9s1.2 4.9 4.3 4.9a5.5 5.5 0 003.7-1.6.7.7 0 011 0 .7.7 0 010 1 6.9 6.9 0 01-4.7 2c-3.4 0-5.7-2.5-5.7-6.3s2.2-6.3 5.3-6.3zM122.1 6.8a.7.7 0 01-.9.3 3.5 3.5 0 00-2.1-.2c-1.8.3-3.3 2-3.7 2.6V17a.7.7 0 01-.7.7.7.7 0 01-.7-.7V6.2a.7.7 0 01.7-.7.7.7 0 01.7.7v1.3a6.6 6.6 0 013.5-2 5 5 0 012.9.3.7.7 0 01.3 1zM48.4 24.2a.7.7 0 01-.7.7h-8.5v15.8a.7.7 0 01-.7.7.7.7 0 01-.7-.7V24.2a.7.7 0 01.7-.7h9.2a.7.7 0 01.7.7zm-.7 7.5a.7.7 0 01-.7.7h-6.4a.7.7 0 01-.7-.7.7.7 0 01.7-.7H47a.7.7 0 01.7.7zM55.3 29c2.7 0 4.8 2 5.2 5.2a.6.6 0 01-.2.5.7.7 0 01-.5.3H53a.7.7 0 01-.7-.7.7.7 0 01.7-.7h6a3.7 3.7 0 00-3.6-3.2c-3 0-4 2.6-4 4.9s1.2 5 4.3 5a5.5 5.5 0 003.7-1.6.7.7 0 011 0 .7.7 0 010 1 6.9 6.9 0 01-4.8 2c-3.3 0-5.6-2.5-5.6-6.3s2.1-6.4 5.3-6.4zM69.4 29.8a.7.7 0 11-.6 1.3c-1.3-.7-3.8-.9-5-.1a1.4 1.4 0 00-.7 1.2c0 .9 1 1.3 2.9 1.8 2 .5 4.6 1.2 4.6 3.9a3.3 3.3 0 01-2.7 3.3c-2.4.7-5.5-.3-6.5-2a.7.7 0 01.2-1 .7.7 0 011 .3c.6 1 3 1.8 5 1.3a2 2 0 001.6-2c0-1.4-1.3-2-3.5-2.5-2-.5-4-1.1-4-3.1a2.7 2.7 0 011.3-2.4c1.7-1.1 4.7-.8 6.4 0zM80.7 40.6a4.5 4.5 0 01-4.4.5 3.3 3.3 0 01-1.7-3.1v-7.3h-2.4a.7.7 0 01-.7-.7.7.7 0 01.7-.7h2.4v-3.5a.7.7 0 01.7-.7.7.7 0 01.7.7v3.5h3.7a.7.7 0 01.7.7.7.7 0 01-.7.7H76V38a2 2 0 00.9 2 3.1 3.1 0 002.9-.5.7.7 0 011 .2.7.7 0 01-.1.9zM84.1 24.6v.6a.7.7 0 11-1.4 0v-.6a.7.7 0 011.4 0zm0 5.2v10.8a.7.7 0 11-1.4 0V29.8a.7.7 0 111.4 0zM97 29.3a.7.7 0 01.3 1l-5 10.7a.7.7 0 01-.6.4.7.7 0 01-.6-.4l-5-10.8a.7.7 0 01.3-.9.7.7 0 011 .3l4.3 9.4 4.4-9.3a.7.7 0 01.9-.4zM105.1 29.4a4.1 4.1 0 012.1 4v7.3a.7.7 0 01-.9.7l-.3-.1-3 .1c-2.9 0-4.4-1.8-4.5-3.6 0-2 1.8-4.2 6-4.3a.7.7 0 01.7.6.7.7 0 01-.7.8c-3.2 0-4.6 1.6-4.6 3 0 1 1 2.1 3 2.1a28.2 28.2 0 003-.1v-6.5a2.7 2.7 0 00-1.4-2.7 4.2 4.2 0 00-4.2 1 .7.7 0 11-.9-1c1.9-1.6 4-2 5.7-1.3zM110.6 23.7a.7.7 0 01.8.7v16.2a.7.7 0 01-.8.7.7.7 0 01-.7-.7V24.4a.7.7 0 01.7-.7zM138.3 6.8a.6.6 0 01-.8-.2c-2.2-3.3-5.5-5.4-8.6-5.4-2.8 0-4.4 1.3-4.4 3.4a3.3 3.3 0 006.7 0 3.8 3.8 0 00-.4-1.6.6.6 0 01.3-.8.6.6 0 01.8.3 4.9 4.9 0 01.5 2.2 4.5 4.5 0 01-9 0c0-2.2 1.4-4.7 5.5-4.7 3.5 0 7.3 2.4 9.6 6a.6.6 0 01-.2.8zM138.7 15.2a3.7 3.7 0 01-3.9 4c-2.7 0-6-2.7-9-5l-1-.7v6.1a.6.6 0 01-.6.6.6.6 0 01-.6-.6v-7.3a.6.6 0 01.4-.6.6.6 0 01.6 0l2 1.6c2.6 2 6 4.6 8.3 4.6a2.5 2.5 0 002.7-2.7 3 3 0 00-1.4-2.6.6.6 0 01-.2-.9.6.6 0 01.9-.1 4.3 4.3 0 011.8 3.6zM130.2 30.5H124a.6.6 0 01-.6-.6.6.6 0 01.6-.6h6.2a2.4 2.4 0 002.3-1.2 3 3 0 00-.4-2.9.6.6 0 011-.7 4.2 4.2 0 01.5 4.2 3.5 3.5 0 01-3.4 1.8zm3-6.9H124a.6.6 0 01-.6-.6.6.6 0 01.6-.6h9.2a.6.6 0 01.6.6.6.6 0 01-.6.6zM138.5 39.7a.6.6 0 01-.6.6h-13.8a.6.6 0 01-.6-.5V37a4.7 4.7 0 014.8-5 5.6 5.6 0 014.4 1.8 4.8 4.8 0 011 4 .6.6 0 01-.7.5.6.6 0 01-.5-.7 3.7 3.7 0 00-.7-3 4.5 4.5 0 00-3.5-1.4 3.5 3.5 0 00-3.6 3.8v2h13.2a.6.6 0 01.6.7zM126.9 70a11.4 11.4 0 01-8.8-4 1 1 0 011.5-1 9.4 9.4 0 007.3 3c5.5 0 9-4 9-10.3s-3.5-10.2-9-10.2c-3.2 0-6.2 1.3-7.7 3.3a1 1 0 01-1.3.3 1 1 0 01-.2-1.3c1.8-2.6 5.4-4.2 9.2-4.2 6.5 0 11 4.9 11 12.1s-4.5 12.2-11 12.2zM106.9 61.7c-1.8-1-2.8-2.8-2.8-5.4v-9.7a1 1 0 011.2-.9 3.3 3.3 0 00.4.1l4.1-.1c3.8 0 5.9 2.4 6 4.8 0 2.7-2.5 5.6-8 5.8a1 1 0 01-1-.9 1 1 0 011-1c4.1-.1 6-2.1 6-4 0-1.4-1.3-3-4-3a37.8 37.8 0 00-3.8.2v8.6c0 1.8.6 3.1 1.7 3.6 1.5.8 3.7.3 5.6-1.3a1 1 0 011.2 1.5c-2.5 2.1-5.4 2.7-7.6 1.7zM81 56.4v-9.7a1 1 0 011-1 1 1 0 01.9 1v9.7c0 2 .6 3.2 1.8 3.7a3 3 0 003.2-.8 1 1 0 011.4 1.4 5 5 0 01-5.3 1.1c-1.2-.4-3-1.7-3-5.4zm8.8 0v-9.7a1 1 0 011-1 1 1 0 011 1v9.7c0 2 .6 3.4 1.8 3.8a2.8 2.8 0 002.9-.7 1 1 0 011.3 0 1 1 0 010 1.4 4.7 4.7 0 01-5 1.1c-1.9-.8-3-2.8-3-5.6zm9.1 4.8V46.7a1 1 0 011-.9 1 1 0 01.9 1v14.4a1 1 0 01-1 1 1 1 0 01-.9-1z"/><path d="M72.3 61.9c-4.5 0-7.7-3.1-7.7-7.6a8.9 8.9 0 012.8-7 7.6 7.6 0 016.3-1.4 1 1 0 01.7 1.1 1 1 0 01-1 .8 5.8 5.8 0 00-4.8 1 7 7 0 00-2.2 5.5c0 3.4 2.4 5.7 6 5.7h3.2V39.6a1 1 0 011-1 1 1 0 011 1v21.3a1 1 0 01-1 1zM49.2 56.3v-9.7a1 1 0 01.9-1 1 1 0 011 1v9.7c0 1.8.6 3 1.8 3.6a4.7 4.7 0 004.6-.5 1 1 0 011.3.1 1 1 0 01-.1 1.3 6.5 6.5 0 01-6.6.8c-1.1-.5-3-1.9-3-5.3zM60 68.5V46.7a1 1 0 011-1 1 1 0 01.9 1v21.8a1 1 0 01-1 1 1 1 0 01-.9-1zM39.3 62.4c-4.5 0-7.5-3.4-7.5-8.5s3-8.4 7.5-8.4 7.5 3.4 7.5 8.4-3 8.5-7.5 8.5zm0-15c-4.1 0-5.6 3.5-5.6 6.5s1.4 6.6 5.6 6.6S45 57 45 54s-1.5-6.5-5.7-6.5zM18.3 60.4a1 1 0 011.3-.5 5 5 0 002.8.3c2.3-.4 4.3-2.8 5-3.5v-10a1 1 0 01.9-1 1 1 0 011 1v14.5a1 1 0 01-1 .9 1 1 0 01-1-1v-1.7a8.9 8.9 0 01-4.6 2.7 6.6 6.6 0 01-4-.5.9.9 0 01-.4-1.2zM8.2 61.7c-1.9-1-2.9-2.8-2.9-5.4v-9.7a.8.8 0 01.4-.7.9.9 0 01.8-.2 3.3 3.3 0 00.5.1 51 51 0 014-.1c3.9 0 6 2.4 6 4.8 0 2.7-2.4 5.6-8 5.8a1 1 0 01-1-.9 1 1 0 011-1c4.2-.1 6.1-2.1 6-4 0-1.4-1.2-3-4-3a37.8 37.8 0 00-3.8.2v8.6c0 1.8.6 3.1 1.8 3.6 1.5.8 3.7.3 5.6-1.3a1 1 0 011.2 1.5c-2.5 2.1-5.5 2.7-7.7 1.7zM150.7 62a.8.8 0 010 1.2l-6.2 5.2h17.7a.9.9 0 01.8.8.9.9 0 01-.8.8h-20a.9.9 0 01-.8-.5.9.9 0 01.2-1l8-6.6a.8.8 0 011.1.1zm-8.5-9.8h20a.8.8 0 01.8.8.9.9 0 01-.8.8h-17.7l8 6.6a.8.8 0 01.1 1.2.8.8 0 01-1.1.1l-9.9-8a.8.8 0 01-.2-1 .9.9 0 01.8-.5zM148.7 41.9c.8-1.7 2.5-2.6 4.8-2.6h8.7a.8.8 0 01.7.4.8.8 0 01.1.7 2.6 2.6 0 000 .4v3.7c0 3.4-2.1 5.2-4.3 5.3-2.4 0-5-2.2-5.2-7.1a.8.8 0 01.8-1 .8.8 0 01.9 1c0 3.7 2 5.4 3.5 5.4 1.3 0 2.7-1.2 2.7-3.6 0-.6 0-2.2-.2-3.5h-7.7c-1.7 0-2.8.5-3.3 1.6-.6 1.3-.2 3.3 1.2 5a.8.8 0 01-1.3 1c-1.8-2.1-2.3-4.8-1.4-6.8zM149.8 26.7a.8.8 0 01.4 1 4.5 4.5 0 00-.2 2.6c.3 2.1 2.5 4 3.2 4.5h9a.8.8 0 01.8.8.8.8 0 01-.8.8h-13a.9.9 0 01-.9-.8.9.9 0 01.9-.8h1.5a8 8 0 01-2.4-4.2 6 6 0 01.4-3.5.8.8 0 011.1-.4zM148.2 18.6A6.3 6.3 0 01150 14a.8.8 0 111.2 1.2 4.7 4.7 0 00-1.4 3.4c0 3.8 3.2 5 6 5s5.8-1.2 5.8-5a4.6 4.6 0 00-1.4-3.6.8.8 0 01-.1-1.2.9.9 0 011.2 0 6.3 6.3 0 012 4.8c0 4-3 6.7-7.5 6.7s-7.6-2.7-7.6-6.7zM142.6 9.7h19.6a.8.8 0 01.8.9.8.8 0 01-.8.8h-19.6a.8.8 0 01-.9-.8.8.8 0 01.9-.9zM153.5 0h8.7a.8.8 0 01.8.8.9.9 0 01-.8.9h-8.7a3.3 3.3 0 00-3.3 1.7 4.2 4.2 0 00.5 4 .8.8 0 010 1.3.8.8 0 01-1.2-.1 5.8 5.8 0 01-.8-6 4.9 4.9 0 014.8-2.6zM12.1 87.1a.7.7 0 01-.2.5.7.7 0 01-1 0l-8-8.8a.7.7 0 010-1l6.9-7.4a.7.7 0 011 0 .7.7 0 01.2.5.7.7 0 01-.1.4l-6.6 7 7.7 8.4a.7.7 0 01.1.4zM2 70.9V87a.7.7 0 01-.7.7.7.7 0 01-.7-.7V70.9a.7.7 0 01.7-.7.7.7 0 01.7.7zM23.6 77l-7.9 15.7a.7.7 0 01-.9.3.7.7 0 01-.3-1l8-15.6a.7.7 0 01.9-.3.7.7 0 01.3 1zm-7 6.7L13.1 77a.7.7 0 01.3-1 .7.7 0 01.9.3l3.6 6.6a.7.7 0 11-1.2.6zM30.2 75.8c3.2 0 5.5 2.4 5.5 6.1s-2.3 6.2-5.5 6.2-5.5-2.5-5.5-6.2 2.2-6.1 5.5-6.1zm0 11c3 0 4-2.7 4-4.9s-1-4.8-4-4.8S26 79.7 26 82s1 4.8 4 4.8zM45.7 87.2a4.4 4.4 0 01-4.3.5 3.2 3.2 0 01-1.5-3.1v-7.1h-2.4a.7.7 0 01-.7-.7.7.7 0 01.7-.7h2.4v-3.4a.7.7 0 01.6-.7.7.7 0 01.7.7v3.4h3.6a.7.7 0 01.7.7.7.7 0 01-.7.7h-3.6v7a2 2 0 00.9 2 3 3 0 002.8-.4.7.7 0 011 .1.7.7 0 01-.2 1zM52.4 75.8c3.3 0 5.5 2.4 5.5 6.1s-2.2 6.2-5.5 6.2-5.5-2.5-5.5-6.2 2.2-6.1 5.5-6.1zm0 11c3 0 4.1-2.7 4.1-4.9s-1-4.8-4.1-4.8-4.1 2.6-4.1 4.8 1 4.8 4.1 4.8zM66 80.8a.7.7 0 01.7.7.7.7 0 01-.7.7h-5.1a.7.7 0 01-.7-.7.7.7 0 01.7-.7zM82.1 70.5a.7.7 0 01.7.7v11.4c-.4 3.4-2.8 5.5-6.4 5.5s-6.1-2.2-6.4-5.4l-.1-1.6V71a.7.7 0 01.7-.6.7.7 0 01.7.7v11.3c.3 2.6 2.2 4.2 5 4.2s4.8-1.6 5-4.2V71a.7.7 0 01.8-.6zM94.8 80.1v7.1a.7.7 0 01-.6.7.7.7 0 01-.7-.7v-7a2.7 2.7 0 00-1.4-2.7 3.4 3.4 0 00-3.4.4.7.7 0 11-.8-1 4.7 4.7 0 014.8-.7 4 4 0 012.1 4zM87 76.6v10.6a.7.7 0 01-.7.6.7.7 0 01-.7-.6V76.6a.7.7 0 01.7-.6.7.7 0 01.7.6zM98.8 71.5v.7a.7.7 0 01-.7.6.7.7 0 01-.7-.6v-.7a.7.7 0 01.7-.7.7.7 0 01.7.7zm0 5.2v10.5a.7.7 0 01-.7.7.7.7 0 01-.7-.7V76.7a.7.7 0 01.7-.7.7.7 0 01.7.7zM111.4 76.1a.7.7 0 01.3 1l-4.9 10.4a.7.7 0 01-1.2 0L100.7 77a.7.7 0 01.3-.9.7.7 0 011 .3l4.2 9.2 4.3-9.2a.7.7 0 01.9-.3zM118 75.8c2.6 0 4.6 2 5 5.1a.7.7 0 01-.1.5.7.7 0 01-.6.3h-6.6a.7.7 0 01-.7-.7.7.7 0 01.7-.7h5.8a3.6 3.6 0 00-3.6-3c-2.7 0-3.7 2.5-3.7 4.7s1 4.8 4 4.8a5.4 5.4 0 003.7-1.5.7.7 0 011 0 .7.7 0 010 1 6.7 6.7 0 01-4.6 2c-3.3 0-5.5-2.5-5.5-6.2s2-6.3 5.1-6.3zM132.6 77.2a.7.7 0 01-1 .3 3.7 3.7 0 00-2-.2c-1.7.3-3.2 2-3.6 2.6v7.3a.7.7 0 01-.7.7.7.7 0 01-.7-.7V76.7a.7.7 0 01.7-.7.7.7 0 01.7.7v1.2a6.5 6.5 0 013.4-1.9 5 5 0 012.8.3.7.7 0 01.4 1zM141.2 76.7a.7.7 0 01-.6 1.2c-1.4-.7-3.8-.9-5-.1a1.3 1.3 0 00-.7 1.2c0 .9 1 1.2 2.8 1.7 2 .5 4.6 1.2 4.6 3.8a3.3 3.3 0 01-2.6 3.3c-2.4.6-5.5-.3-6.4-2a.7.7 0 01.2-.9.7.7 0 011 .3c.5 1 3 1.8 4.8 1.2a2 2 0 001.6-1.9c0-1.4-1.3-1.9-3.5-2.5-1.8-.5-3.9-1-3.9-3a2.6 2.6 0 011.4-2.3c1.7-1.1 4.6-.9 6.3 0zM145.7 71.5v.7a.7.7 0 11-1.4 0v-.7a.7.7 0 011.3 0zm0 5.2v10.5a.7.7 0 01-1.4 0V76.7a.7.7 0 111.3 0zM156.4 87.2a4.4 4.4 0 01-4.3.5 3.2 3.2 0 01-1.6-3.1v-7.1h-2.4a.7.7 0 01-.6-.7.7.7 0 01.6-.7h2.4v-3.4a.7.7 0 01.7-.7.7.7 0 01.7.7v3.4h3.5a.7.7 0 01.7.7.7.7 0 01-.7.7H152v7a2 2 0 00.9 2 3 3 0 002.8-.4.7.7 0 011 .1.7.7 0 01-.2 1zM168 77l-8 15.7a.7.7 0 01-1 .3.7.7 0 01-.2-1l7.9-15.6a.7.7 0 011-.3.7.7 0 01.2 1zm-7 6.7l-3.6-6.6a.7.7 0 01.2-1 .7.7 0 011 .3L162 83a.7.7 0 11-1.2.7zM188.2 8.5c0 5-3.8 8.4-9.5 8.4s-9.4-3.3-9.4-8.4S173 0 178.7 0s9.5 3.4 9.5 8.5zm-17.5 0c0 4.2 3.2 7 8 7s8-2.8 8-7-3.1-7-8-7-8 2.7-8 7zM181.4 20.3H170a.7.7 0 01-.7-.7.8.8 0 01.7-.7h11.3a.7.7 0 01.7.7.7.7 0 01-.7.7zm-3.8 7h-7.5a.8.8 0 01-.7-.7.7.7 0 01.7-.7h7.5c1.6 0 2.7-.5 3-1.4a2.1 2.1 0 00-.5-2.2.7.7 0 010-1 .8.8 0 011 0 3.6 3.6 0 011 3.8c-.7 1.4-2.3 2.3-4.4 2.3zm0 7h-7.5a.8.8 0 01-.7-.8.7.7 0 01.7-.7h7.5c1.5 0 2.5-.5 3-1.4a2.4 2.4 0 00-.7-2.5.7.7 0 011-1 3.9 3.9 0 011 4c-.4 1-1.4 2.4-4.3 2.4zM181.8 43a4.3 4.3 0 01-4.2 2.2H170a.7.7 0 01-.7-1 2 2 0 000-.3 40 40 0 010-3.2c0-3 1.8-4.5 3.7-4.6 2.1 0 4.4 1.9 4.6 6.2a.7.7 0 01-.7.7.7.7 0 01-.8-.7c-.1-3.3-1.7-4.8-3-4.7-1.2 0-2.4 1-2.4 3.1l.1 3h6.8a2.9 2.9 0 002.8-1.3c.6-1.2.2-3-1-4.4a.7.7 0 011.1-1c1.6 2 2 4.3 1.3 6zM170.1 56.5a4.6 4.6 0 01-.5-4.6 3.4 3.4 0 013.3-1.7h7.6v-2.6a.7.7 0 01.7-.7.7.7 0 01.7.7v2.6h3.7a.7.7 0 01.7.7.8.8 0 01-.7.7h-3.7v3.8a.7.7 0 01-.7.8.8.8 0 01-.7-.8v-3.8h-7.6a2 2 0 00-2 1 3.3 3.3 0 00.4 3 .7.7 0 01-.1 1 .7.7 0 01-1-.1zM181.4 65.8a.7.7 0 01-1 .4.7.7 0 01-.4-1c.7-1.5 1-4 .2-5.3a1.4 1.4 0 00-1.3-.7c-1 0-1.4 1.1-1.9 3-.6 2.2-1.3 4.8-4 4.8a3.5 3.5 0 01-3.5-2.7c-.7-2.5.2-5.8 2-6.9a.7.7 0 011 .2.8.8 0 01-.3 1c-1 .7-1.9 3.3-1.3 5.3a2 2 0 002.1 1.7c1.5 0 2-1.4 2.6-3.7.6-2 1.2-4.2 3.3-4.2a2.8 2.8 0 012.5 1.5c1.1 1.8.9 4.8 0 6.6zM182.2 69.7a.8.8 0 01-.8.7h-7.6a2.8 2.8 0 00-2.8 1.5 3.5 3.5 0 00.4 3.5.7.7 0 010 1 .7.7 0 01-1 0 5 5 0 01-.7-5.2 4.2 4.2 0 014.1-2.3h7.6a.7.7 0 01.8.8zM182 78a.7.7 0 01-.7.7H170a.7.7 0 110-1.4h11.3a.7.7 0 01.7.7zM180.8 89.6a.7.7 0 01-.4-1 3.8 3.8 0 00.2-2.2c-.3-1.8-2.1-3.3-2.7-3.8H170a.7.7 0 01-.7-.7.7.7 0 01.7-.8h11.3a.8.8 0 01.7.8.7.7 0 01-.7.7H180a6.9 6.9 0 012 3.6 5 5 0 01-.3 3 .7.7 0 01-1 .4zM186.9 93h-.7a.7.7 0 110-1.5h.7a.7.7 0 010 1.5zm-5.6 0h-11.2a.7.7 0 110-1.5h11.2a.7.7 0 010 1.5zM189.3 77.1a1.2 1.2 0 112.2.9c-1.8 4.5-1.9 9.3-.2 11.8a4.7 4.7 0 004.2 2c2.6 0 3.6-2.7 5-7 1.4-4.6 3.1-10.2 9.1-10.2a8.1 8.1 0 018 5c1.8 4.4.7 11-2.5 14.3a1.2 1.2 0 01-1.7-1.6c2.5-2.7 3.4-8.2 2-11.7a5.6 5.6 0 00-5.8-3.6c-4 0-5.3 3.3-6.9 8.4-1.3 4.1-2.7 8.7-7.2 8.7a7 7 0 01-6.1-3c-2.7-3.9-1.7-10-.1-14zM216.8 57.4a7.5 7.5 0 011 7.4c-.6 1-2 2.8-5.4 2.8H200v4.2a1.2 1.2 0 01-1.2 1.2 1.2 1.2 0 01-1.2-1.2v-4.2h-6a1.2 1.2 0 01-1.1-1.2 1.2 1.2 0 011.2-1.2h5.9v-6.1a1.2 1.2 0 011.2-1.2A1.2 1.2 0 01200 59v6.1h12.3c1.6 0 2.7-.5 3.2-1.5a5.3 5.3 0 00-.7-5 1.1 1.1 0 01.3-1.6 1.2 1.2 0 011.7.3zM198 44.2c1.1-2.3 3.5-3.6 6.7-3.6H217a1.2 1.2 0 011.1 1.5 5.3 5.3 0 00-.1.6c.2 1.9.2 4 .2 5.2 0 4.8-3 7.4-6 7.5-3.5 0-7.2-3-7.5-10a1.2 1.2 0 011.2-1.2 1.2 1.2 0 011.2 1.1c.2 5.4 2.7 7.8 5 7.7 1.8 0 3.7-1.6 3.7-5a48.4 48.4 0 00-.2-5h-10.9c-2.3 0-4 .8-4.6 2.3-.9 1.9-.3 4.6 1.7 7a1.2 1.2 0 01-.2 1.7 1.2 1.2 0 01-1.7-.2c-2.5-3.1-3.2-6.9-1.9-9.6zM197.6 27.1v-5A1.2 1.2 0 01199 21h17.3c6.9 0 10.8 3.6 10.8 10a1.2 1.2 0 01-1.2 1.1 1.2 1.2 0 01-1.2-1.2c0-5-2.8-7.5-8.4-7.5H200v3.8a7.8 7.8 0 007.8 7.8c2.8 0 5-.8 6.3-2.4s1.8-3.7 1.3-6.3a1.1 1.1 0 011-1.4 1.2 1.2 0 011.4 1c.6 3.3 0 6.2-1.8 8.3s-4.6 3.2-8.1 3.2A10.1 10.1 0 01197.6 27zM197.2 8.9c0-4.7 3.4-8.2 8.8-8.8a1.1 1.1 0 01.9.2 1.2 1.2 0 01.4 1v11.5a1.2 1.2 0 01-1.2 1.2 1.2 1.2 0 01-1.1-1.2V2.7c-3.4.8-5.4 3-5.4 6.2 0 4.8 4.5 6.6 8.3 6.6s8.3-2 8.3-7.2a9.3 9.3 0 00-2.6-6.2 1.1 1.1 0 010-1.7 1.2 1.2 0 011.6-.1 11.7 11.7 0 013.4 8c0 5.7-4.3 9.5-10.7 9.5s-10.7-3.6-10.7-9zM146.6 95.4c7.5 0 12.5 5.6 12.5 14s-5 14-12.5 14-12.5-5.7-12.5-14 5-14 12.5-14zm0 25.7c6.3 0 10.3-4.6 10.3-11.7s-4-11.8-10.3-11.8-10.3 4.6-10.3 11.8 4 11.7 10.3 11.7zM164.2 105.4V122a1.1 1.1 0 01-1.1 1 1 1 0 01-1.1-1v-16.6a1 1 0 011-1 1 1 0 011.2 1zm12.4 5.5v11.2a1.1 1.1 0 01-1.1 1 1 1 0 01-1-1v-11.2c0-2-.8-3.5-2.2-4.2a5.3 5.3 0 00-5.3.7 1 1 0 01-1.4-1.7 7.5 7.5 0 017.6-1c1.3.7 3.4 2.3 3.4 6.2zM181.7 96a1.1 1.1 0 011 1v25a1.1 1.1 0 01-1 1 1 1 0 01-1.1-1V97a1 1 0 011-1zM189.4 97.3v1a1 1 0 01-2.2 0v-1a1 1 0 012.2 0zm0 8.2V122a1 1 0 01-2.2 0v-16.6a1 1 0 012.2 0zM195.8 105.4V122a1.1 1.1 0 01-1.1 1 1 1 0 01-1-1v-16.6a1 1 0 011-1 1 1 0 011 1zm12.4 5.5v11.2a1.1 1.1 0 01-1 1 1 1 0 01-1.2-1v-11.2c0-2-.7-3.5-2.1-4.2a5.3 5.3 0 00-5.3.7 1 1 0 11-1.4-1.7 7.5 7.5 0 017.6-1c1.3.7 3.4 2.3 3.4 6.2zM219 104.1c4.3 0 7.4 3.2 8 8a1 1 0 01-.3.9 1 1 0 01-.7.4h-10.6a1.1 1.1 0 01-1-1.1 1 1 0 011-1h9.2c-.8-3.2-2.8-5-5.7-5-4.3 0-6 4-6 7.5s1.7 7.6 6.5 7.6a8.5 8.5 0 005.7-2.3 1 1 0 011.5 0 1 1 0 01.1 1.5 10.6 10.6 0 01-7.3 3c-5.1 0-8.6-4-8.6-9.7s3.3-9.8 8.2-9.8zM259 13.5a1 1 0 01-1 1 1 1 0 01-1-1V1.9h-20.3v12.2a1 1 0 01-1 1 1 1 0 01-1-1V1a1 1 0 011-1H258a1 1 0 011 1zm-10.3-.8a1 1 0 01-1 1 1 1 0 01-1-1V4a1 1 0 011-1 1 1 0 011 1zM234.8 30.4a1 1 0 01.2-1.3l6.7-5.5-6.7-5.5a1 1 0 01-.1-1.3 1 1 0 011.3-.1l7 5.7 6.4-5.2a1 1 0 011.3 1.5l-6.1 4.9 6 5a1 1 0 01-1.2 1.4l-6.4-5.2-7 5.7a1 1 0 01-1.3 0zM251.5 40a7.2 7.2 0 01-2.1 5.2A1 1 0 11248 44a5.3 5.3 0 001.6-3.9c0-4.2-3.6-5.7-6.7-5.7s-6.7 1.5-6.7 5.7a5.2 5.2 0 001.7 4 1 1 0 010 1.4 1 1 0 01-1.3 0 7.2 7.2 0 01-2.4-5.4c0-4.6 3.5-7.7 8.7-7.7s8.6 3.1 8.6 7.7zM245.4 61h-9.9a1 1 0 01-1-1 1 1 0 011-1h10c1.7 0 3-.6 3.6-2a4.7 4.7 0 00-.6-4.6 1 1 0 011.5-1 6.7 6.7 0 01.8 6.6c-.5 1.2-2 3-5.4 3zm12.4-11h-22.2a1 1 0 01-1-1 1 1 0 011-1h22.2a1 1 0 011 1 1 1 0 01-1 1zM250.9 72.4c-1 1.8-2.8 2.8-5.5 2.8h-9.8a1 1 0 01-1-1.2 3.6 3.6 0 00.2-.5c-.2-1.5-.2-3.2-.2-4.1 0-3.9 2.5-6 4.9-6 2.7 0 5.7 2.5 6 8a1 1 0 01-1 1 1 1 0 01-1-.9c0-4.3-2.2-6.2-4-6.2-1.4 0-3 1.4-3 4.1a39.3 39.3 0 00.2 4h8.8c1.8 0 3.1-.6 3.7-1.8.7-1.6.2-3.8-1.4-5.7a1 1 0 01.2-1.4 1 1 0 011.3.2c2 2.4 2.6 5.5 1.6 7.7zM245.5 91.6h-9.9a1 1 0 01-1-1 1 1 0 011-1h9.9a3.8 3.8 0 003.7-2 4.7 4.7 0 00-.6-4.6 1 1 0 011.5-1.2 6.6 6.6 0 01.8 6.7c-.5 1.2-2 3-5.4 3zm4.9-11h-14.7a1 1 0 01-1-1 1 1 0 011-1h14.7a1 1 0 011 1 1 1 0 01-1 1zM251.2 102.2v4a1 1 0 01-1 1h-14c-5.6 0-8.7-3-8.7-8a1 1 0 011-1 1 1 0 011 1c0 4 2.2 6 6.7 6h13v-3A6.2 6.2 0 00243 96a6.4 6.4 0 00-5.1 2 6.2 6.2 0 00-1 5 1 1 0 01-.8 1.1 1 1 0 01-1-.7 8 8 0 011.3-6.7A8.4 8.4 0 01243 94a8.1 8.1 0 018.2 8.2zM251.5 117c0 3.7-2.8 6.5-7 7a.9.9 0 01-.8-.2 1 1 0 01-.4-.7v-9.4a1 1 0 011-1 1 1 0 011 1v8.2c2.8-.7 4.4-2.5 4.4-5 0-4-3.6-5.3-6.7-5.3s-6.7 1.5-6.7 5.7a7.5 7.5 0 002 5 1 1 0 010 1.4 1 1 0 01-1.3 0 9.4 9.4 0 01-2.6-6.4c0-4.6 3.4-7.7 8.6-7.7s8.5 3 8.5 7.3zM6.7 95.9c4.2 0 7 2.8 7 7 0 4.8-4.7 10.9-8.8 16.2L3.5 121h11a1 1 0 011.2 1 1 1 0 01-1.1 1.2H1.3a1 1 0 01-1-.7 1.1 1.1 0 01.1-1l2.8-3.7c3.7-4.8 8.4-10.8 8.4-15 0-3-1.9-4.8-5-4.8a5.6 5.6 0 00-4.6 2.5 1 1 0 01-1.5.3 1.1 1.1 0 01-.3-1.5 7.8 7.8 0 016.5-3.4zM27.8 95.9c3.8 0 8.3 3.6 8.3 13.8s-4.5 13.8-8.3 13.8-8.4-3.6-8.4-13.8 4.5-13.8 8.4-13.8zm0 25.5c3.7 0 6.1-4.7 6.1-11.7S31.5 98 27.8 98s-6.2 4.7-6.2 11.7 2.4 11.7 6.1 11.7zM47 95.9c4.3 0 7 2.8 7 7 0 4.8-4.6 10.9-8.8 16.2 0 0-.6 1-1.4 1.9h11a1 1 0 011.2 1 1 1 0 01-1 1.1H41.5a1 1 0 01-1-.6 1.1 1.1 0 01.1-1l2.8-3.7c3.7-4.8 8.4-10.8 8.4-15 0-3-1.8-4.8-5-4.8a5.6 5.6 0 00-4.6 2.5 1 1 0 01-1.5.3 1.1 1.1 0 01-.3-1.5 7.8 7.8 0 016.5-3.4zM68.4 96.2a1 1 0 011.1 1v25a1 1 0 01-1 1.2 1 1 0 01-1.1-1.1v-24h-2.6a1 1 0 01-1.1-1 1 1 0 011-1.2zM152.7 151.7c6 0 8.2 3.8 8.2 7.1a8.7 8.7 0 01-3.9 7 8.8 8.8 0 014.8 8c0 4.3-2.8 8.7-9 8.7a9.2 9.2 0 01-7.9-3.6 1.3 1.3 0 01.2-1.8 1.3 1.3 0 011.7.2 6.8 6.8 0 006 2.8c4.6 0 6.7-3 6.7-6.2s-2.2-6.6-7-6.6a1.2 1.2 0 01-1.2-1.2 1.2 1.2 0 011.2-1.2 6 6 0 006-6c0-3-2.1-4.7-5.7-4.7a7.2 7.2 0 00-5.3 2.8 1.2 1.2 0 01-1.8-1.5 9.4 9.4 0 017-3.8zM167.6 178.6a1.2 1.2 0 011.2 1.2v1.1a1.2 1.2 0 01-1.2 1.2 1.2 1.2 0 01-1.2-1.2v-1a1.2 1.2 0 011.2-1.3zM181.3 151.7c4.7 0 7.8 3.2 7.8 7.8 0 5.4-5.2 12.1-9.8 18l-1.6 2.1h12.4a1.2 1.2 0 011.2 1.2 1.2 1.2 0 01-1.2 1.2h-14.8a1.2 1.2 0 01-1-.6 1.3 1.3 0 010-1.3l3.1-4c4.2-5.3 9.3-12 9.3-16.6 0-3.3-2-5.3-5.4-5.3a6.2 6.2 0 00-5.2 2.7 1.2 1.2 0 01-1.7.3 1.3 1.3 0 01-.3-1.7 8.6 8.6 0 017.2-3.8zM213.5 173.4a8.9 8.9 0 11-17.8 0 9.1 9.1 0 014.7-8 7.7 7.7 0 01-3.3-6.2 7.5 7.5 0 1115 0 7.7 7.7 0 01-3.3 6.2 9 9 0 014.7 8zm-2.4 0a6.5 6.5 0 10-6.5 6.7 6.6 6.6 0 006.5-6.7zm-6.5-9a5.2 5.2 0 10-5.1-5.2 5.1 5.1 0 005.1 5.2zM114.4 121.5c0 6-3.8 8.1-7 8.1a8.7 8.7 0 01-7.2-3.9 8.8 8.8 0 01-8 4.8c-4.1 0-8.6-2.8-8.6-9a9.2 9.2 0 013.7-7.9 1.3 1.3 0 011.7.2 1.3 1.3 0 01-.2 1.7 6.8 6.8 0 00-2.8 6c0 4.6 3.1 6.7 6.3 6.7s6.5-2.2 6.5-7a1.2 1.2 0 011.2-1.2 1.2 1.2 0 011.2 1.2 6 6 0 006 6c3 0 4.7-2.1 4.7-5.7a7.2 7.2 0 00-2.8-5.3 1.2 1.2 0 011.5-1.8 9.4 9.4 0 013.8 7zM87.5 136.3a1.2 1.2 0 01-1.2 1.2h-1a1.2 1.2 0 01-1.3-1.2 1.2 1.2 0 011.2-1.2h1.1a1.2 1.2 0 011.2 1.2zM114.4 150c0 4.7-3.1 7.9-7.8 7.9-5.4 0-12.1-5.3-18-9.9l-2.1-1.5v12.3a1.2 1.2 0 01-1.2 1.2 1.2 1.2 0 01-1.2-1.2V144a1.2 1.2 0 01.7-1 1.3 1.3 0 011.2 0l4 3.1c5.3 4.2 12 9.3 16.6 9.3 3.4 0 5.4-2 5.4-5.4a6.2 6.2 0 00-2.8-5.2 1.2 1.2 0 01-.3-1.7 1.3 1.3 0 011.7-.3 8.6 8.6 0 013.8 7.2zM113.6 178a1.2 1.2 0 01-1.7-.4c-4.2-6.6-11-10.9-17.1-10.9-5.5 0-8.7 2.6-8.7 7a6.6 6.6 0 0013.2 0 7.6 7.6 0 00-.6-3.4 1.2 1.2 0 01.5-1.6 1.2 1.2 0 011.6.6 9.8 9.8 0 011 4.3 9 9 0 01-18.1 0c0-4.3 2.9-9.3 11-9.3 7 0 14.6 4.7 19.3 12a1.2 1.2 0 01-.4 1.6zM86.3 95a.6.6 0 01-.6.6c-2.3 0-3.3 1-3.3 3.5v.2H84a.6.6 0 01.6.6.6.6 0 01-.6.6h-1.8v8.5a.6.6 0 01-.6.6.6.6 0 01-.6-.6v-8.5h-1.6a.6.6 0 01-.6-.6.6.6 0 01.6-.6H81v-.2c0-3.1 1.6-4.7 4.6-4.7a.6.6 0 01.6.6zM94.4 100.2a.6.6 0 01-.8.3 3.1 3.1 0 00-1.8-.2 6 6 0 00-3.1 2.3v6.3a.6.6 0 01-.6.6.6.6 0 01-.6-.6v-9.2a.6.6 0 01.6-.6.6.6 0 01.6.6v1.1a5.6 5.6 0 013-1.7 4.1 4.1 0 012.5.3.6.6 0 01.2.8zM100 99c3 0 4.9 2 4.9 5.3s-2 5.4-4.8 5.4-4.8-2.2-4.8-5.4 2-5.4 4.8-5.4zm0 9.5c2.7 0 3.7-2.3 3.7-4.2s-1-4.2-3.6-4.2-3.6 2.3-3.6 4.2 1 4.2 3.6 4.2zM107.8 99.7v9.2a.6.6 0 01-.6.6.6.6 0 01-.6-.6v-9.2a.6.6 0 01.6-.6.6.6 0 01.6.6zm5.7 3v6.2a.6.6 0 01-.6.6.6.6 0 01-.6-.6v-6.2c0-1.2-.3-2.1-1-2.4a1.8 1.8 0 00-2 .4.6.6 0 01-.8 0 .6.6 0 010-.8 3 3 0 013.2-.7c1.1.5 1.8 1.8 1.8 3.5zm5.7 0v6.2a.6.6 0 01-.6.6.6.6 0 01-.6-.6v-6.2c0-1.2-.4-2-1.1-2.3a2 2 0 00-2.1.5.6.6 0 01-.9-.9 3.2 3.2 0 013.4-.7c.7.3 1.9 1.1 1.9 3.4zM129.4 181.7a3.8 3.8 0 01-3.7.4 2.8 2.8 0 01-1.4-2.7v-6.2h-2.1a.6.6 0 01-.6-.6.6.6 0 01.6-.6h2v-3a.6.6 0 01.7-.6.6.6 0 01.6.6v3h3a.6.6 0 01.7.6.6.6 0 01-.6.6h-3.1v6.2a1.7 1.7 0 00.7 1.7 2.7 2.7 0 002.5-.4.6.6 0 01.8.1.6.6 0 01-.1.9zM135.2 171.7c2.9 0 4.8 2.2 4.8 5.4s-1.9 5.4-4.8 5.4-4.8-2.2-4.8-5.4 2-5.4 4.8-5.4zm0 9.6c2.7 0 3.6-2.3 3.6-4.2s-.9-4.2-3.6-4.2-3.6 2.3-3.6 4.2 1 4.2 3.6 4.2zM197.7 146.7a.8.8 0 01.8-.7h13.3a.8.8 0 110 1.5h-13.3a.8.8 0 01-.8-.8zm6.7-2.2v-15.8a.8.8 0 01.8-.8.8.8 0 01.7.8v15.8a.8.8 0 01-.7.8.8.8 0 01-.8-.8zM185.4 136.8v-8a.8.8 0 01.8-.7.8.8 0 01.8.7v8a3 3 0 001.5 3 3.8 3.8 0 003.7-.5.7.7 0 011.1 0 .8.8 0 010 1.1 5.3 5.3 0 01-5.5.7 4.4 4.4 0 01-2.4-4.3zm8.9 10v-17.9a.8.8 0 01.7-.8.8.8 0 01.8.8v17.8a.8.8 0 01-.8.8.8.8 0 01-.7-.8zM177.8 141.7c-3 0-5.3-2.3-5.7-5.7a.7.7 0 01.2-.6.8.8 0 01.5-.3h7.5a.8.8 0 01.8.8.8.8 0 01-.8.7h-6.5a4 4 0 004 3.5c3.1 0 4.2-2.9 4.2-5.3s-1.2-5.4-4.6-5.4a6 6 0 00-4 1.6.7.7 0 01-1.1 0 .8.8 0 010-1 7.5 7.5 0 015.1-2.2c3.7 0 6.2 2.8 6.2 7s-2.4 6.8-5.8 6.8zM154 136.8V129a.8.8 0 01.8-.8.8.8 0 01.7.8v8c0 1.5.6 2.5 1.5 3a2.6 2.6 0 002.7-.7.8.8 0 011 1.1 4 4 0 01-4.3 1c-.8-.4-2.4-1.5-2.4-4.5zm7.2 0V129a.8.8 0 01.8-.8.8.8 0 01.8.8v8c0 1.6.5 2.7 1.4 3a2.3 2.3 0 002.4-.5.8.8 0 011 0 .8.8 0 010 1.1 3.8 3.8 0 01-4 1c-1.4-.7-2.3-2.4-2.3-4.7zm7.4 4V129a.8.8 0 01.8-.8.8.8 0 01.8.8v11.8a.8.8 0 01-.8.8.8.8 0 01-.7-.8zM146.3 141.7c-3 0-5.2-2.3-5.7-5.7a.7.7 0 01.2-.6.8.8 0 01.6-.3h7.5a.8.8 0 01.7.8.8.8 0 01-.7.7h-6.6a4 4 0 004 3.5c3.2 0 4.3-2.9 4.3-5.3s-1.2-5.4-4.6-5.4a6 6 0 00-4 1.6.7.7 0 01-1.2 0 .8.8 0 010-1 7.5 7.5 0 015.2-2.2c3.6 0 6.1 2.8 6.1 7s-2.3 6.8-5.8 6.8zM134 98c0 2.6-1.5 4.2-3.8 4.2a3.8 3.8 0 01-3.1-1.3c-1.2-1.4-1-3.5-.9-4.6a.5.5 0 01.6-.4.5.5 0 01.4.6 4.9 4.9 0 00.6 3.8 3 3 0 002.4 1c1.8 0 2.9-1.3 2.9-3.3v-2.7h-10.7a.5.5 0 01-.4-.5.5.5 0 01.4-.4h11.2a.5.5 0 01.4.4zM130.4 107c0 2.3-1.7 3.8-4.2 3.8s-4.3-1.5-4.3-3.8 1.7-3.8 4.2-3.8 4.3 1.5 4.3 3.8zm-7.6 0c0 2.1 1.8 2.9 3.4 2.9s3.3-.8 3.3-2.9-1.8-2.9-3.3-2.9-3.4.7-3.4 2.9zM129.8 117a.5.5 0 01-.6.2.5.5 0 01-.2-.6 4.2 4.2 0 000-3.4 1 1 0 00-.8-.5c-.6 0-.9.7-1.2 2-.4 1.4-.8 3.1-2.6 3.1a2.3 2.3 0 01-2.3-1.8c-.4-1.6.2-3.8 1.3-4.4a.5.5 0 01.7.1.5.5 0 01-.2.7 3.5 3.5 0 00-.9 3.4 1.3 1.3 0 001.4 1c1 0 1.3-.9 1.7-2.4.3-1.2.7-2.7 2.1-2.7a1.8 1.8 0 011.6 1 5 5 0 010 4.3zM122.5 124.6a3 3 0 01-.3-3 2.2 2.2 0 012.1-1.1h5v-1.7a.5.5 0 111 0v1.7h2.3a.5.5 0 01.5.4.5.5 0 01-.5.5h-2.4v2.5a.5.5 0 11-1 0v-2.5h-4.9a1.3 1.3 0 00-1.3.6 2 2 0 00.3 2 .5.5 0 01-.1.7.5.5 0 01-.7-.1zM130.2 128.5a3.7 3.7 0 01-3.8 4 4.5 4.5 0 01-3.5-1.4 3.8 3.8 0 01-.8-3.2.5.5 0 01.6-.4.5.5 0 01.3.5 2.9 2.9 0 00.6 2.4 3.5 3.5 0 002.8 1.1 2.8 2.8 0 002.8-3V127H119a.5.5 0 01-.5-.5.5.5 0 01.5-.5h10.8a.5.5 0 01.5.5zM130.4 137.2c0 2.3-1.7 3.8-4.2 3.8s-4.3-1.5-4.3-3.8 1.7-3.8 4.2-3.8 4.3 1.5 4.3 3.8zm-7.6 0c0 2.1 1.8 2.9 3.4 2.9s3.3-.8 3.3-2.9-1.8-2.9-3.3-2.9-3.4.8-3.4 2.9zM127.4 148.8h-4.9a.5.5 0 110-1h5a1.9 1.9 0 001.7-1 2.3 2.3 0 00-.3-2.3.5.5 0 01.8-.6 3.3 3.3 0 01.4 3.3 2.8 2.8 0 01-2.7 1.6zm2.4-5.5h-7.3a.5.5 0 01-.5-.5.5.5 0 01.5-.4h7.3a.5.5 0 01.5.4.5.5 0 01-.5.5zM130.4 153.5a3.6 3.6 0 01-3.5 3.5.4.4 0 01-.4 0 .5.5 0 01-.2-.4V152a.5.5 0 111 0v4a2.5 2.5 0 002.2-2.5c0-2-1.8-2.6-3.3-2.6s-3.4.7-3.4 2.9a3.8 3.8 0 001 2.4.5.5 0 010 .7.5.5 0 01-.6 0 4.7 4.7 0 01-1.3-3.2c0-2.2 1.7-3.8 4.2-3.8s4.3 1.5 4.3 3.6zM134 164a.5.5 0 01-.5.4h-11a.5.5 0 01-.4-.5v-2.1a3.7 3.7 0 013.8-4 4.4 4.4 0 013.5 1.5 3.9 3.9 0 01.8 3.2.5.5 0 01-.6.3.5.5 0 01-.4-.5 3 3 0 00-.5-2.4 3.6 3.6 0 00-2.8-1 2.8 2.8 0 00-2.8 3v1.6h10.4a.5.5 0 01.5.4zM39 129a.7.7 0 11-.5 1.3c-2.8-1.1-5.7-1.2-7.2-.2a2.8 2.8 0 00-1.2 2.6c0 1.6 1.6 2.2 4.3 3s6 1.9 6 5.5a5 5 0 01-3 4.8 8.8 8.8 0 01-8.6-1.5.7.7 0 111-1 7.3 7.3 0 007.1 1.2 3.4 3.4 0 002.2-3.4c0-2.5-2-3.3-5.1-4.2-2.5-.8-5.3-1.6-5.3-4.4a4.3 4.3 0 011.9-3.7c2.3-1.6 6-1 8.4 0zM44 129v16.7a.7.7 0 01-.8.8.7.7 0 01-.7-.8V129a.7.7 0 01.7-.7.7.7 0 01.7.7zm8.2 9.3v7.5a.7.7 0 01-.7.7.7.7 0 01-.7-.7v-7.5a2.8 2.8 0 00-1.4-2.7 3.6 3.6 0 00-3.6.4.7.7 0 01-.9-1.1 5 5 0 015-.6 4.1 4.1 0 012.3 4zM59.8 133.6c3.4 0 5.8 2.6 5.8 6.5s-2.4 6.5-5.8 6.5-5.8-2.6-5.8-6.5 2.4-6.5 5.8-6.5zm0 11.6c3.2 0 4.3-2.8 4.3-5s-1.1-5-4.3-5-4.3 2.7-4.3 5 1 5 4.3 5zM71.8 134a5.6 5.6 0 016 5.8 6.8 6.8 0 01-2.1 5.3 5.8 5.8 0 01-4.9 1.2.7.7 0 01-.6-.9.8.8 0 01.9-.6 4.4 4.4 0 003.6-.8 5.3 5.3 0 001.7-4.2 4.2 4.2 0 00-4.6-4.3h-2.5V151a.7.7 0 01-.7.7.7.7 0 01-.7-.7v-16.3a.7.7 0 01.7-.7zM28.7 127.9a.8.8 0 01-.8.8H8.6v11.6a.9.9 0 01-1 1 .9.9 0 01-.8-1V128a.9.9 0 01.9-1h20.2a.9.9 0 01.8 1zM21.2 150.7c-.8 1.7-2.6 2.6-5 2.6h-9a.8.8 0 01-.6-.4.8.8 0 01-.2-.7 3.6 3.6 0 00.1-.4 47 47 0 01-.1-3.8c0-3.5 2.2-5.4 4.4-5.5 2.5 0 5.3 2.3 5.4 7.3a.9.9 0 01-.8 1 .9.9 0 01-1-.9c0-3.9-2-5.7-3.6-5.6-1.3 0-2.7 1.2-2.7 3.7 0 .6 0 2.2.2 3.6h8c1.7 0 2.8-.6 3.3-1.7.7-1.4.2-3.4-1.2-5.1a.9.9 0 111.4-1.1c1.8 2.3 2.3 5 1.4 7zM28.4 157.2a.9.9 0 01-.9.8h-19v2.8a5.7 5.7 0 005.6 5.7 5.9 5.9 0 004.6-1.8 5.6 5.6 0 001-4.6.9.9 0 01.6-1 .9.9 0 011 .7 7.2 7.2 0 01-1.3 6 7.5 7.5 0 01-6 2.4 7.4 7.4 0 01-7.3-7.4V157a.8.8 0 01.8-.8h20a.8.8 0 01.9.9zM21.9 176.8c0 4.1-3.2 7-7.9 7s-7.7-2.9-7.7-7 3-7 7.7-7 7.9 2.9 7.9 7zm-13.9 0c0 3.8 3.3 5.2 6 5.2s6-1.4 6-5.2-3.2-5.2-6-5.2-6 1.3-6 5.2zM20 196.1a.8.8 0 01-.4-1.1 4.5 4.5 0 00.2-2.6c-.3-2.2-2.6-4-3.2-4.6H7.4a.8.8 0 01-.9-.8.9.9 0 01.9-1h13.3a.9.9 0 01.9 1 .9.9 0 01-.9.8h-1.6a8.2 8.2 0 012.5 4.3 6.1 6.1 0 01-.5 3.6.8.8 0 01-1.1.4zM21.2 205.5c-.8 1.7-2.6 2.6-5 2.6h-9a.8.8 0 01-.6-.3.8.8 0 01-.2-.8 3.4 3.4 0 00.1-.4l-.1-3.8c0-3.5 2.2-5.4 4.4-5.4 2.5 0 5.3 2.2 5.4 7.3a.8.8 0 01-.8.9.9.9 0 01-1-.9c0-3.9-2-5.6-3.6-5.6-1.3 0-2.7 1.2-2.7 3.7 0 .7 0 2.2.2 3.6h8c1.7 0 2.8-.6 3.3-1.6.7-1.4.2-3.5-1.2-5.2a.9.9 0 01.2-1.2.9.9 0 011.2.1c1.8 2.3 2.3 5 1.4 7zM7.4 221.4a5.5 5.5 0 01-.6-5.4 4 4 0 013.9-2h9v-3a.9.9 0 01.9-.8.8.8 0 01.8.8v3h4.3a.9.9 0 01.9 1 .9.9 0 01-.9.8h-4.3v4.5a.9.9 0 01-.9.8.9.9 0 01-.9-.8v-4.5h-9a2.4 2.4 0 00-2.3 1 3.8 3.8 0 00.5 3.7.8.8 0 01-.2 1.2.9.9 0 01-1.2-.3zM21.9 229.9c0 4.1-3.2 7-7.9 7s-7.7-2.9-7.7-7 3-7 7.7-7 7.9 2.8 7.9 7zm-13.9 0c0 3.8 3.3 5.2 6 5.2s6-1.4 6-5.2-3.2-5.2-6-5.2-6 1.3-6 5.2zM20 249.2a.8.8 0 01-.4-1.1 4.5 4.5 0 00.2-2.6c-.3-2.2-2.6-4-3.2-4.6H7.4a.9.9 0 01-.9-.8.9.9 0 01.9-1h13.3a.9.9 0 01.9 1 .9.9 0 01-.9.8h-1.6a8.2 8.2 0 012.5 4.3 6.1 6.1 0 01-.5 3.6.8.8 0 01-1.1.4zM20.2 263.6l-19.7-10a.9.9 0 01-.4-1.2.8.8 0 011.1-.4L21 262a.9.9 0 01.4 1.2.9.9 0 01-1.2.4zm-8.3-8.9l8.3-4.5a.9.9 0 011.2.4.9.9 0 01-.4 1.2l-8.3 4.5a.9.9 0 11-.9-1.6zM113.6 207.5a.8.8 0 01-.8-.8v-18.1h-11a.8.8 0 01-.8-.9.8.8 0 01.8-.8h11.8a.8.8 0 01.8.8v19a.8.8 0 01-.8.8zM93.6 201c-3.2 0-5.6-2.4-6-6a.7.7 0 01.2-.6.8.8 0 01.6-.3h8a.8.8 0 01.8.8.8.8 0 01-.8.8h-7c.5 2.3 2 3.7 4.2 3.7 3.4 0 4.6-3 4.6-5.7s-1.3-5.7-5-5.7a6.4 6.4 0 00-4.2 1.8.8.8 0 01-1.2 0 .8.8 0 010-1.2 8 8 0 015.5-2.3c3.9 0 6.5 3 6.5 7.4s-2.5 7.3-6.2 7.3zM79.6 201a6 6 0 01-4.5-1.8.8.8 0 010-1.1.8.8 0 011.2 0 4.5 4.5 0 003.3 1.3c3.6 0 4.9-3.1 4.9-5.8s-1.3-5.7-4.9-5.7a4.5 4.5 0 00-3.5 1.5.8.8 0 01-1.1 0 .8.8 0 010-1 6.1 6.1 0 014.6-2c4 0 6.6 3 6.6 7.3s-2.7 7.3-6.6 7.3zM63 187.5a5.2 5.2 0 015.1-.6 3.8 3.8 0 012 3.7v8.4h2.8a.8.8 0 01.8.8.8.8 0 01-.8.8H70v4a.8.8 0 01-.8.9.8.8 0 01-.8-.8v-4h-4.2a.8.8 0 01-.8-.9.8.8 0 01.8-.8h4.2v-8.4a2.3 2.3 0 00-1-2.3 3.6 3.6 0 00-3.4.5.8.8 0 01-1.1-.2.8.8 0 01.2-1.1zM50.7 200.8a.8.8 0 01-.8-.8v-12.5a.8.8 0 111.6 0V200a.8.8 0 01-.8.8zm9.4 0a.8.8 0 01-.8-.7v-8.5a3.1 3.1 0 00-1.7-3.1 4 4 0 00-4 .5.8.8 0 01-1.1-.1.8.8 0 01.1-1.2 5.7 5.7 0 015.7-.7c1 .5 2.6 1.7 2.6 4.6v8.5a.8.8 0 01-.8.8zM37.9 199.3a.8.8 0 011-.4 4.3 4.3 0 002.5.3c2-.3 3.8-2.4 4.3-3v-8.7a.8.8 0 01.8-.9.8.8 0 01.8.9V200a.8.8 0 01-.8.8.8.8 0 01-.8-.8v-1.5a7.7 7.7 0 01-4 2.3 5.8 5.8 0 01-3.4-.4.8.8 0 01-.4-1zM30.6 201c-3.2 0-5.6-2.4-6-6a.8.8 0 01.2-.6.8.8 0 01.6-.3h7.9a.8.8 0 01.8.8.8.8 0 01-.8.8h-7c.6 2.3 2.1 3.7 4.3 3.7 3.3 0 4.5-3 4.5-5.7s-1.3-5.7-5-5.7a6.4 6.4 0 00-4.2 1.8.8.8 0 01-1.1 0 .8.8 0 01-.1-1.2 8 8 0 015.5-2.3c3.9 0 6.5 3 6.5 7.4s-2.5 7.3-6.1 7.3zM262.8 85.8a.9.9 0 011 .9v15.6a.9.9 0 11-1.9 0V86.7a.9.9 0 011-.9zm2.6 7.8H284a.9.9 0 011 .9.9.9 0 01-1 .9h-18.5a.9.9 0 01-.9-.9 1 1 0 011-.9zM262.8 81.7h21a.9.9 0 01.8 1 .9.9 0 01-.9.8h-20.9a.9.9 0 01-.9-.9.9.9 0 011-.9zm11.7-10.3h9.3a.9.9 0 01.9.9.9.9 0 01-1 .9h-9.2A3.5 3.5 0 00271 75a4.4 4.4 0 00.5 4.4.9.9 0 11-1.3 1.1 6.2 6.2 0 01-.8-6.3c.5-1 1.8-2.8 5-2.8zM268.8 62.4c0-3.5 2.6-6.1 6.6-6.6a.8.8 0 01.7.2.9.9 0 01.3.6v8.8a1 1 0 01-.8.9.9.9 0 01-1-.9v-7.7c-2.5.6-4 2.4-4 4.7 0 3.7 3.4 5 6.2 5s6.3-1.4 6.3-5.4a7 7 0 00-2-4.7.9.9 0 010-1.3.9.9 0 011.4 0 8.8 8.8 0 012.4 6c0 4.3-3.2 7.2-8 7.2s-8.1-2.7-8.1-6.8zM269.4 45.8c.8-1.7 2.6-2.7 5-2.7h9.4a.9.9 0 01.8 1.2 3.8 3.8 0 000 .4v4c0 3.6-2.2 5.5-4.5 5.6-2.6 0-5.4-2.3-5.6-7.6a.9.9 0 01.8-1 .9.9 0 011 1c0 4 2 5.8 3.8 5.8 1.3 0 2.8-1.3 2.8-3.9a36.9 36.9 0 00-.2-3.7h-8.2c-1.8 0-3 .6-3.5 1.7-.7 1.5-.2 3.6 1.3 5.4a.9.9 0 01-1.5 1.1c-1.8-2.3-2.4-5.2-1.4-7.3zM283.6 29.3a5.7 5.7 0 01.7 5.6 4.2 4.2 0 01-4 2.1H271v3.2a.9.9 0 01-.9.9.9.9 0 01-.9-1V37h-4.5a.9.9 0 01-.9-.9 1 1 0 011-.9h4.4v-4.6a.9.9 0 01.9-1 1 1 0 01.9 1v4.6h9.3a2.5 2.5 0 002.5-1.1 4 4 0 00-.6-3.7.9.9 0 01.2-1.3 1 1 0 011.3.2zM268.7 20.6c0-4.3 3.2-7.3 8-7.3s8.2 3 8.2 7.3-3.3 7.1-8.1 7.1-8.1-2.9-8.1-7.1zm14.4 0c0-4-3.4-5.5-6.3-5.5s-6.3 1.5-6.3 5.5 3.4 5.3 6.3 5.3 6.3-1.4 6.3-5.3zM270.6.5a.9.9 0 01.4 1.1 4.7 4.7 0 00-.3 2.8c.4 2.2 2.7 4.1 3.4 4.7h9.6a.9.9 0 01.9.9.9.9 0 01-1 .9h-13.8a1 1 0 01-.8-1 .9.9 0 01.9-.8h1.6a8.4 8.4 0 01-2.5-4.4 6.3 6.3 0 01.4-3.8.9.9 0 011.2-.4zM216.9 180.3c0-2.2 1.3-3.7 3.3-3.7a3.3 3.3 0 012.7 1.2 5 5 0 01.7 4 .4.4 0 01-.5.3.4.4 0 01-.3-.5 4.3 4.3 0 00-.6-3.3 2.6 2.6 0 00-2-.9c-1.6 0-2.5 1.1-2.5 2.9v2.3h9.2a.4.4 0 01.4.4.4.4 0 01-.4.4h-9.6a.4.4 0 01-.5-.4zM216.8 169.3a.4.4 0 01.8 0v5h8.8v-5.2a.4.4 0 01.4-.4.4.4 0 01.4.4v5.7a.4.4 0 01-.4.4h-9.6a.4.4 0 01-.4-.4zm4.4.4a.4.4 0 01.4-.5.4.4 0 01.4.5v3.8a.4.4 0 01-.4.4.4.4 0 01-.4-.4zM216.9 166.7l8.8-6.8H217a.4.4 0 010-.8h9.8a.4.4 0 01.4.3.4.4 0 01-.2.4l-8.8 6.8h8.6a.4.4 0 01.4.4.4.4 0 01-.4.4h-9.8a.4.4 0 01-.4-.2.4.4 0 01.2-.5zM216.7 153a5 5 0 011.7-3.8.4.4 0 01.5.7 4.1 4.1 0 00-1.4 3.2c0 2.4 1.8 4 4.5 4s4.5-1.6 4.5-4a4.7 4.7 0 00-1.2-3.3h-2.6v2a.4.4 0 01-.4.4.4.4 0 01-.5-.4v-2.4a.4.4 0 01.5-.4h3.2a.4.4 0 01.3 0 5.5 5.5 0 011.5 4c0 3-2 4.8-5.3 4.8s-5.3-1.9-5.3-4.7zM216.8 139.7a.4.4 0 01.4-.4h7a3.9 3.9 0 010 7.7h-7a.4.4 0 01-.4-.4.4.4 0 01.4-.4h6.8a3 3 0 000-6h-6.8a.4.4 0 01-.4-.5zM216.7 137a.4.4 0 01.4-.4h9.8a.4.4 0 01.4.4.4.4 0 01-.4.4h-9.8a.4.4 0 01-.4-.4zM216.9 134l8.8-6.8H217a.4.4 0 010-.8h9.8a.4.4 0 01.4.3.4.4 0 01-.2.4l-8.8 6.8h8.6a.4.4 0 01.4.4.4.4 0 01-.4.4h-9.8a.4.4 0 01-.4-.2.4.4 0 01.2-.5zM37.4 208.5c6.4 0 10.2 3 10.2 8a7.8 7.8 0 01-2 5.8 9 9 0 01-4.7 2.2 34 34 0 015.2 5.7L51 236a1.4 1.4 0 01.3.8 1.1 1.1 0 01-2 .7l-4.9-6c-4-5-5.3-6.6-9.5-6.6h-1.2a1.1 1.1 0 01-1.1-1 1.1 1.1 0 011-1.2h.4c3.7 0 8 0 10-2.1a5.6 5.6 0 001.4-4c0-3.8-2.8-5.9-7.9-5.9H31v25.6a1.1 1.1 0 01-1.1 1.1 1.1 1.1 0 01-1.2-1.1v-26.6a1.1 1.1 0 011.2-1.2zM63.5 218c2.2 1 3.4 3.3 3.4 6.4V236a1 1 0 01-.5 1 1 1 0 01-1 .2 5.3 5.3 0 00-.5-.2l-5 .2c-4.6 0-7-3-7.1-5.8 0-3.3 2.9-6.9 9.6-7.1a1.1 1.1 0 011.1 1 1.1 1.1 0 01-1 1.3c-5.2.1-7.5 2.6-7.5 4.7 0 1.8 1.6 3.6 5 3.6.8 0 2.9 0 4.6-.2v-10.4c0-2.2-.7-3.8-2.1-4.4-1.8-.9-4.5-.3-6.8 1.6a1.1 1.1 0 01-1.4-1.8c3-2.4 6.6-3.1 9.2-1.9zM84.6 208.5a1.1 1.1 0 011.1 1.1v26.3a1.1 1.1 0 01-1 1h-5.2c-5.6 0-9.4-3.7-9.4-9 0-3.6 1.1-6.6 3.3-8.4a9.1 9.1 0 017.7-1.8 1.2 1.2 0 011 1.3 1.1 1.1 0 01-1.4 1 7.1 7.1 0 00-5.8 1.2c-1.6 1.4-2.5 3.8-2.5 6.7 0 4 2.8 6.8 7.1 6.8h4v-25.1a1.1 1.1 0 011-1.1zM92.5 210v1a1.1 1.1 0 11-2.3 0v-1a1.1 1.1 0 112.3 0zm0 8.6V236a1.1 1.1 0 11-2.3 0v-17.5a1.1 1.1 0 112.3 0zM105 217c5.4 0 9.1 4.2 9.1 10.3s-3.7 10.2-9.1 10.2-9.1-4-9.1-10.2S99.6 217 105 217zm0 18.2c5 0 6.8-4.2 6.8-7.9s-1.7-8-6.8-8-6.8 4.3-6.8 8 1.8 8 6.8 8zM149.5 188.3a1 1 0 01-1 1h-20.8v12.5a1 1 0 01-1 1 1 1 0 01-.9-1v-13.5a1 1 0 011-1h21.8a1 1 0 011 1zM147.9 207.3h-.9a1 1 0 110-1.9h.9a1 1 0 110 1.9zm-7 0h-14.5a1 1 0 110-1.9h14.4a1 1 0 110 1.9zM141.6 224.5a1 1 0 01-1.3.5l-14.3-6.7a1 1 0 010-1.7l14.4-6.7a.9.9 0 011.2.5 1 1 0 01-.4 1.2l-12.6 5.8 12.6 6a.9.9 0 01.4 1.1zM142 233.5c0 3.7-2.7 6.5-7 7a.9.9 0 01-.7-.2 1 1 0 01-.4-.7v-9.1a1 1 0 011-1 1 1 0 011 1v8c2.6-.7 4.2-2.5 4.2-5 0-3.7-3.6-5.1-6.6-5.1s-6.5 1.4-6.5 5.6a7.4 7.4 0 002 5 .9.9 0 010 1.3 1 1 0 01-1.3 0 9.1 9.1 0 01-2.6-6.3c0-4.4 3.3-7.5 8.4-7.5s8.5 2.8 8.5 7zM43 240.5a.9.9 0 01.8.9.9.9 0 01-.9.9H32v19.1h11.5a.9.9 0 011 1 .9.9 0 01-1 .8H31.1a1 1 0 01-.9-.9v-21a1 1 0 011-.9zm-.8 9.6a.9.9 0 011 1 .9.9 0 01-1 .8H34a.9.9 0 01-1-.9 1 1 0 011-.9zM58.9 263.2a.9.9 0 01-1.3-.1l-5.2-6.3-5 6.3a.9.9 0 11-1.5-1.1l5.4-6.6-4.9-6a.9.9 0 011.4-1.2l4.7 5.7 4.6-5.7a.9.9 0 111.4 1.2l-4.9 6L59 262a.9.9 0 01-.1 1.2zM63.2 241.6v20.9a.9.9 0 01-1 .9.9.9 0 01-.8-.9v-20.9a.9.9 0 01.9-.9.9.9 0 01.9 1zm10.3 11.7v9.3a.9.9 0 01-.9.9.9.9 0 01-.9-1v-9.2a3.5 3.5 0 00-1.8-3.5 4.4 4.4 0 00-4.4.5.9.9 0 11-1.1-1.3 6.2 6.2 0 016.3-.8c1 .5 2.8 1.8 2.8 5zM78.6 241.9v.8a.9.9 0 01-1.8 0v-.8a.9.9 0 111.8 0zm0 6.8v13.8a.9.9 0 11-1.8 0v-13.8a.9.9 0 111.8 0zM83 240.7a.9.9 0 01.9.9v19.8h2.9a5.9 5.9 0 005.9-5.9 6 6 0 00-1.8-4.8 5.8 5.8 0 00-4.8-1 .9.9 0 01-1-.7 1 1 0 01.7-1 7.4 7.4 0 016.2 1.4 7.8 7.8 0 012.5 6.1 7.7 7.7 0 01-7.8 7.7H83a.9.9 0 01-.8-.8v-20.8a.9.9 0 01.9-1zM99 241.9v.8a.9.9 0 11-1.8 0v-.8a.9.9 0 111.8 0zm0 6.8v13.8a.9.9 0 01-1.8 0v-13.8a.9.9 0 111.8 0zM113.2 262.4a5.7 5.7 0 01-5.6.7 4.2 4.2 0 01-2.1-4v-9.4h-3.2a.9.9 0 01-.9-.8.9.9 0 011-1h3v-4.4a.9.9 0 011-1 1 1 0 01.9 1v4.5h4.6a.9.9 0 011 .9 1 1 0 01-1 .9h-4.6v9.3a2.5 2.5 0 001.1 2.5 4 4 0 003.7-.6.9.9 0 011.3.2 1 1 0 01-.2 1.2zM117.6 241.9v.8a.9.9 0 01-1.8 0v-.8a.9.9 0 111.8 0zm0 6.8v13.8a.9.9 0 11-1.8 0v-13.8a.9.9 0 111.8 0zM127.6 247.5c4.3 0 7.2 3.2 7.2 8s-3 8.1-7.2 8.1-7.2-3.2-7.2-8 2.9-8.1 7.2-8.1zm0 14.3c4 0 5.4-3.4 5.4-6.2s-1.4-6.3-5.4-6.3-5.4 3.4-5.4 6.3 1.4 6.2 5.4 6.2zM139.2 248.6v13.8a1 1 0 01-1 1 .9.9 0 01-.8-1v-13.8a.9.9 0 01.9-.9.9.9 0 01.9 1zm10.3 4.6v9.3a1 1 0 01-.9.9.9.9 0 01-.9-.9v-9.3a3.5 3.5 0 00-1.8-3.5 4.4 4.4 0 00-4.4.6.9.9 0 11-1-1.4 6.2 6.2 0 016.2-.8c1 .5 2.8 1.9 2.8 5.1zM234.2 242a1.6 1.6 0 011.6-1.5 1.5 1.5 0 011.5 1.5v18.6h32.8V241a1.5 1.5 0 011.5-1.5 1.6 1.6 0 011.5 1.5v21.1a1.6 1.6 0 01-1.5 1.5h-35.8a1.6 1.6 0 01-1.6-1.5zm16.5 1.2a1.6 1.6 0 011.6-1.6 1.5 1.5 0 011.5 1.6v14.2a1.6 1.6 0 01-1.5 1.6 1.6 1.6 0 01-1.6-1.6zM256 214.4h15.9a1.6 1.6 0 011.5 1.5 1.5 1.5 0 01-1.5 1.5H256c-3 0-5 1.1-6 3.1a7.5 7.5 0 001 7.6 1.6 1.6 0 01-.2 2.1 1.5 1.5 0 01-2.1-.2 10.6 10.6 0 01-1.4-10.8c.8-1.8 3.1-4.8 8.7-4.8zm-7.8 17.7h23.6a1.6 1.6 0 011.5 1.5 1.6 1.6 0 01-1.5 1.5H248a1.5 1.5 0 01-1.5-1.5 1.6 1.6 0 011.5-1.5zM236.6 205.6h1.5a1.5 1.5 0 011.5 1.6 1.6 1.6 0 01-1.5 1.5h-1.5a1.5 1.5 0 01-1.5-1.5 1.5 1.5 0 011.5-1.6zm11.6 0H272a12.4 12.4 0 0112 7.7 1.6 1.6 0 01-1 1.9 1.6 1.6 0 01-2-1c-.1-.2-2-5.5-9-5.5h-23.8a1.6 1.6 0 01-1.5-1.6 1.6 1.6 0 011.5-1.5zM246.2 188.2c0-7.3 5.5-12.3 13.8-12.3s13.8 5 13.8 12.3-5.5 12.3-13.8 12.3-13.8-5-13.8-12.3zm24.5 0c0-6.8-5.8-9.2-10.7-9.2s-10.7 2.4-10.7 9.2 5.7 9.3 10.7 9.3 10.7-2.4 10.7-9.3zM249 149.6l35.1 17.8a1.6 1.6 0 01.7 2 1.5 1.5 0 01-2 .7l-35.1-17.7a1.6 1.6 0 01-.7-2.1 1.5 1.5 0 012-.7zm15 15.7l-14.9 8a1.6 1.6 0 01-2.1-.7 1.6 1.6 0 01.7-2l14.8-8a1.6 1.6 0 012 .6 1.6 1.6 0 01-.6 2zM236.3 142.6h25.4a1.5 1.5 0 011.6 1.6 1.5 1.5 0 01-1.6 1.5h-25.4a1.5 1.5 0 01-1.5-1.5 1.5 1.5 0 011.5-1.6zm33.8 0h1.5a1.6 1.6 0 011.5 1.6 1.5 1.5 0 01-1.5 1.5H270a1.6 1.6 0 01-1.5-1.5 1.6 1.6 0 011.5-1.6zM166.2 188.6a.7.7 0 01.7.7.7.7 0 01-.7.6h-8.4v14.7h8.8a.7.7 0 01.7.7.7.7 0 01-.7.7h-9.5a.7.7 0 01-.6-.7v-16a.7.7 0 01.6-.7zm-.6 7.4a.7.7 0 01.7.7.7.7 0 01-.7.7h-6.4a.7.7 0 01-.7-.7.7.7 0 01.7-.7zM178.4 206a.7.7 0 01-1 0l-4-5-4 5a.7.7 0 01-1 0 .7.7 0 010-1l4.1-5-3.7-4.7a.7.7 0 010-1 .7.7 0 011 .1l3.6 4.4 3.6-4.4a.7.7 0 111 .9l-3.8 4.6 4.2 5a.7.7 0 010 1.1zM184.3 194.3a5.4 5.4 0 015.7 5.5 6.5 6.5 0 01-2 5.1 5.6 5.6 0 01-4.7 1.1.7.7 0 01-.6-.8.7.7 0 01.8-.6 4.2 4.2 0 003.5-.7 5.1 5.1 0 001.6-4 4 4 0 00-4.3-4.2h-2.4v15a.7.7 0 01-.7.6.7.7 0 01-.7-.7V195a.7.7 0 01.6-.7zM192.8 188.8a.7.7 0 01.7.7v15.9a.7.7 0 01-.7.7.7.7 0 01-.6-.7v-16a.7.7 0 01.7-.6zM201 194c3.4 0 5.6 2.4 5.6 6.1s-2.2 6.2-5.5 6.2-5.5-2.5-5.5-6.2 2.2-6.2 5.5-6.2zm0 11c3.1 0 4.2-2.7 4.2-4.9s-1-4.8-4.1-4.8-4.2 2.6-4.2 4.8 1.1 4.8 4.2 4.8zM216.5 195.4a.7.7 0 01-1 .3 3.6 3.6 0 00-2-.2c-1.7.3-3.2 2-3.6 2.6v7.3a.7.7 0 01-.7.7.7.7 0 01-.7-.7v-10.6a.7.7 0 01.7-.7.7.7 0 01.7.7v1.3a6.5 6.5 0 013.4-2 5 5 0 012.8.4.7.7 0 01.4.9zM222.6 194c2.7 0 4.8 2 5.1 5.1a.7.7 0 01-.1.5.7.7 0 01-.5.3h-6.7a.7.7 0 01-.7-.7.7.7 0 01.7-.7h5.8a3.6 3.6 0 00-3.6-3.1c-2.8 0-3.8 2.6-3.8 4.8s1 4.8 4.2 4.8a5.5 5.5 0 003.6-1.5.7.7 0 011 0 .7.7 0 010 1 6.7 6.7 0 01-4.6 2c-3.3 0-5.5-2.5-5.5-6.3s2-6.2 5.1-6.2zM215.1 217.4a4.4 4.4 0 01-.5-4.3 3.2 3.2 0 013.1-1.6h7.1v-2.4a.7.7 0 01.7-.7.7.7 0 01.7.7v2.4h3.4a.7.7 0 01.7.7.7.7 0 01-.7.7h-3.4v3.5a.7.7 0 01-.7.7.7.7 0 01-.7-.7V213h-7a2 2 0 00-2 .8 3 3 0 00.4 2.9.7.7 0 01-.1 1 .7.7 0 01-1-.2zM222.2 228.5H215a.7.7 0 01-.7-.7.7.7 0 01.7-.6h7.1a2.7 2.7 0 002.7-1.4 3.4 3.4 0 00-.4-3.4.7.7 0 111-.9 4.8 4.8 0 01.6 4.9 4 4 0 01-3.8 2.1zm8.9-7.9h-16a.7.7 0 01-.7-.7.7.7 0 01.7-.7h16a.7.7 0 01.7.7.7.7 0 01-.7.7zM225.7 232.5H215a.7.7 0 010-1.4h10.6a.7.7 0 010 1.4zm5.2 0h-.7a.7.7 0 010-1.4h.7a.7.7 0 010 1.4zM225.7 242.2a.7.7 0 01-1.3-.6c.7-1.3 1-3.7.2-5a1.4 1.4 0 00-1.3-.7c-.8 0-1.2 1.1-1.7 3-.5 2-1.2 4.5-3.8 4.5a3.3 3.3 0 01-3.3-2.7c-.6-2.3.3-5.4 1.9-6.4a.7.7 0 011 .2.7.7 0 01-.3 1c-1 .5-1.8 3-1.3 4.9a2 2 0 002 1.6c1.5 0 2-1.4 2.5-3.5.5-1.9 1-4 3-4a2.6 2.6 0 012.4 1.4c1 1.7.8 4.6 0 6.3zM218.3 263a.7.7 0 01.7-.7h8.4v-15.6a.7.7 0 01.6-.6.7.7 0 01.7.6V263a.7.7 0 01-.7.7h-9a.7.7 0 01-.7-.7zm.7-7.4a.7.7 0 01.7-.7h6.2a.7.7 0 01.7.7.7.7 0 01-.7.7h-6.2a.7.7 0 01-.7-.8zM211.6 258.2c-2.8 0-4.8-2-5.2-5a.7.7 0 01.2-.6.7.7 0 01.5-.3h6.7a.7.7 0 01.7.7.7.7 0 01-.7.7H208a3.6 3.6 0 003.6 3.1c2.8 0 3.8-2.6 3.8-4.8s-1-4.8-4.1-4.8a5.5 5.5 0 00-3.7 1.5.7.7 0 01-1 0 .7.7 0 010-1 6.7 6.7 0 014.7-2c3.3 0 5.5 2.5 5.5 6.3s-2.2 6.2-5.3 6.2zM197.6 257.4a.7.7 0 01.6-1.3c1.4.7 3.8 1 5 .2a1.4 1.4 0 00.7-1.3c0-.8-1-1.2-2.9-1.7-2-.5-4.5-1.2-4.5-3.8a3.3 3.3 0 012.6-3.3c2.4-.6 5.5.3 6.5 1.9a.7.7 0 01-.3 1 .7.7 0 01-1-.3c-.5-1-3-1.8-4.9-1.3a2 2 0 00-1.6 2c0 1.5 1.4 2 3.5 2.5 1.9.5 4 1 4 3a2.6 2.6 0 01-1.4 2.4c-1.7 1-4.6.8-6.3 0zM186.6 246.8a4.4 4.4 0 014.3-.5 3.2 3.2 0 011.6 3.1v7.1h2.4a.7.7 0 01.7.7.7.7 0 01-.7.7h-2.4v3.4a.7.7 0 01-.7.7.7.7 0 01-.6-.7V258h-3.6a.7.7 0 01-.7-.7.7.7 0 01.7-.7h3.6v-7a2 2 0 00-1-2 3 3 0 00-2.8.4.7.7 0 01-1-.1.7.7 0 01.2-1zM183.2 257.4v-10.6a.7.7 0 011.4 0v10.6a.7.7 0 01-1.4 0zm0 5.2v-.7a.7.7 0 011.4 0v.7a.7.7 0 01-1.4 0zM170.5 258a.7.7 0 01-.3-1l5-10.6a.7.7 0 01.6-.4.7.7 0 01.6.4l5 10.6a.7.7 0 01-.4 1 .7.7 0 01-1-.4l-4.2-9.2-4.3 9.2a.7.7 0 01-1 .3zM162.6 257.8a4 4 0 01-2-4v-7a.6.6 0 01.2-.6.6.6 0 01.6-.1 2.7 2.7 0 00.3 0h3c2.9 0 4.4 1.7 4.4 3.4 0 2-1.8 4.2-5.8 4.3a.7.7 0 01-.7-.6.7.7 0 01.6-.7c3.1-.1 4.5-1.6 4.5-3 0-1-1-2.1-3-2.1a27.2 27.2 0 00-2.8.1v6.3a2.7 2.7 0 001.3 2.7c1 .5 2.7.2 4.1-1a.7.7 0 01.8 1 5.4 5.4 0 01-5.5 1.3zM157.2 263.4a.7.7 0 01-.7-.7v-15.9a.7.7 0 01.7-.7.7.7 0 01.6.7v16a.7.7 0 01-.7.6zM72.5 156.8l-30.7 23.7h29.8a1.4 1.4 0 010 2.9H37.5a1.4 1.4 0 01-1.4-1 1.5 1.5 0 01.5-1.7L67.4 157h-30a1.5 1.5 0 01-1.4-1.4 1.5 1.5 0 011.4-1.4h34.2a1.5 1.5 0 011.4 1 1.5 1.5 0 01-.5 1.6zM201.6 242.2a1.8 1.8 0 01-1.7-1.8v-21.2h-39.6a1.8 1.8 0 01-1.7-1.8 1.8 1.8 0 011.7-1.7h41.3a1.8 1.8 0 011.8 1.7v23a1.8 1.8 0 01-1.8 1.8zm-18.8-1.7a1.8 1.8 0 01-1.8-1.7v-16a1.7 1.7 0 011.8-1.8 1.8 1.8 0 011.7 1.8v16a1.8 1.8 0 01-1.7 1.7z"/></g></svg>