<?xml version="1.0" encoding="utf-8"?>
<!-- Generator: Adobe Illustrator 16.0.0, SVG Export Plug-In . SVG Version: 6.00 Build 0)  -->
<!DOCTYPE svg PUBLIC "-//W3C//DTD SVG 1.1//EN" "http://www.w3.org/Graphics/SVG/1.1/DTD/svg11.dtd">
<svg version="1.1" id="レイヤー_1" xmlns="http://www.w3.org/2000/svg" xmlns:xlink="http://www.w3.org/1999/xlink" x="0px"
	 y="0px" width="867.402px" height="867.402px" viewBox="0 0 867.402 867.402" enable-background="new 0 0 867.402 867.402"
	 xml:space="preserve">
<rect fill="none" width="867.402" height="867.402"/>
<g>
	<g>
		<path fill="#FFFFFF" d="M342.555,331.344c0,12.132-7.236,21.961-16.162,21.961c-8.927,0-16.165-9.829-16.165-21.961
			c0-12.131,7.237-21.966,16.165-21.966C335.319,309.377,342.555,319.212,342.555,331.344"/>
		<path fill="#FFFFFF" d="M580.129,326.455c0,12.131-7.233,21.967-16.16,21.967c-8.929,0-16.166-9.835-16.166-21.967
			s7.237-21.964,16.166-21.964C572.896,304.491,580.129,314.323,580.129,326.455"/>
		<g>
			<path fill="#E6E9EC" d="M576.66,624.709c-5.867,14.252-9.475,35.907-8.089,61.263c2.869,52.426,18.868,67.011,18.868,67.011
				c-7.511,0.65-27.039-2.925-37.362,9.188c-4.865,5.713-5.147,14.293-2.936,20.144c6.438,17.038,37.648,14.581,40.528,14.451
				c14.398-0.644,32.302-7.474,35.779-21.026c2.043-8.02-2.221-11.919-5.286-24.623c-3.663-15.18-2.724-26.419-4.627-58.949
				c-1.235-20.988,2.88-38.858,6.74-64.482"/>
			<path fill="#6D6F70" d="M621.095,791.738c-8.67,7.565-21.616,11.51-33.111,12.019l-0.402,0.022
				c-14.556,0.814-40.033-0.588-46.981-18.991c-2.903-7.685-2.744-19.058,4.155-27.156c8.154-9.57,20.161-11.388,29.751-11.632
				c-5.228-10.559-11.245-29.043-12.927-59.649c-1.329-24.355,1.807-47.792,8.609-64.305c1.473-3.58,5.556-5.28,9.134-3.807
				c3.576,1.471,5.28,5.56,3.8,9.137c-6.029,14.65-8.787,35.866-7.56,58.218c2.616,47.892,16.551,62.171,16.692,62.31
				c1.942,1.914,2.642,4.833,1.718,7.403c-0.924,2.564-3.206,4.404-5.918,4.647c-1.917,0.164-4.13,0.121-6.691,0.067
				c-8.397-0.178-19.887-0.406-25.957,6.691c-3.007,3.525-3.127,9.396-1.719,13.133c3.219,8.515,19.221,10.732,33.119,9.962
				l0.542-0.032c12.401-0.548,26.886-6.27,29.313-15.78c0.74-2.863,0.196-4.572-1.625-9.519c-1.105-3.001-2.47-6.731-3.673-11.719
				c-2.694-11.138-3.053-20.275-3.649-35.414c-0.268-6.72-0.579-14.722-1.171-24.773c-1.015-17.42,1.518-32.992,4.449-51.032
				c0.761-4.698,1.564-9.633,2.358-14.899c0.58-3.823,4.139-6.45,7.957-5.881c3.825,0.577,6.457,4.142,5.881,7.963
				c-0.804,5.324-1.614,10.315-2.384,15.068c-2.915,17.927-5.219,32.087-4.29,47.966c0.598,10.155,0.914,18.247,1.186,25.039
				c0.575,14.757,0.9,22.892,3.265,32.682c1.018,4.203,2.181,7.369,3.207,10.166c2.007,5.456,3.897,10.607,2.047,17.826
				C628.768,783.162,625.479,787.914,621.095,791.738"/>
		</g>
		<g>
			<path fill="#E6E9EC" d="M287.647,624.709c-5.869,14.252-9.474,35.907-8.089,61.263c2.87,52.426,18.871,67.011,18.871,67.011
				c-7.511,0.65-27.037-2.925-37.362,9.188c-4.867,5.713-5.147,14.293-2.935,20.144c6.434,17.038,37.648,14.581,40.525,14.451
				c14.4-0.644,32.305-7.474,35.778-21.026c2.044-8.02-2.216-11.919-5.283-24.623c-3.665-15.18-2.727-26.419-4.629-58.949
				c-1.233-20.988,2.882-38.858,6.739-64.482"/>
			<path fill="#6D6F70" d="M332.085,791.738c-8.675,7.565-21.62,11.51-33.114,12.019l-0.402,0.022
				c-14.56,0.814-40.032-0.588-46.98-18.991c-2.904-7.685-2.744-19.058,4.155-27.156c8.156-9.57,20.162-11.388,29.747-11.632
				c-5.223-10.559-11.243-29.043-12.924-59.649c-1.329-24.355,1.807-47.792,8.611-64.305c1.472-3.58,5.554-5.28,9.13-3.807
				c3.576,1.471,5.281,5.56,3.804,9.137c-6.031,14.65-8.787,35.866-7.562,58.218c2.617,47.892,16.549,62.171,16.695,62.31
				c1.939,1.914,2.641,4.833,1.716,7.403c-0.924,2.564-3.209,4.404-5.921,4.647c-1.915,0.164-4.127,0.121-6.69,0.067
				c-8.395-0.178-19.885-0.406-25.953,6.691c-3.008,3.525-3.127,9.396-1.718,13.133c3.217,8.515,19.215,10.732,33.117,9.962
				l0.544-0.032c12.398-0.548,26.879-6.27,29.312-15.78c0.738-2.863,0.193-4.572-1.624-9.519c-1.105-3.001-2.477-6.731-3.68-11.719
				c-2.689-11.138-3.051-20.275-3.647-35.414c-0.267-6.72-0.581-14.722-1.171-24.773c-1.016-17.42,1.518-32.992,4.451-51.032
				c0.764-4.698,1.566-9.633,2.358-14.899c0.577-3.823,4.139-6.45,7.956-5.881c3.826,0.577,6.456,4.142,5.882,7.963
				c-0.803,5.324-1.614,10.315-2.385,15.068c-2.917,17.927-5.221,32.087-4.287,47.966c0.594,10.155,0.91,18.247,1.181,25.039
				c0.577,14.757,0.902,22.892,3.265,32.682c1.02,4.203,2.182,7.369,3.209,10.166c2.008,5.456,3.897,10.607,2.046,17.826
				C339.753,783.162,336.467,787.914,332.085,791.738"/>
		</g>
		<g display="none">
			<path display="inline" fill="#E6E9EC" d="M660.271,370.938c40.724,2.656,70.341,14.838,87.428,23.536
				c30.408,15.483,43.966,26.001,53.772,45.96c22.178,45.099,0.282,75.001,6.762,75.106c6.277,0.104,4.684,6.154,5.568,12.316
				c1.726,11.98-10.28,27.635-26.895,27.996c-11.494,0.252-19.402-4.06-23.521-13.414c-3.251-7.386-2.903-18.71,2.654-23.248
				c4.128-3.357,7.405-1.508,11.315-3.95c8.736-5.444,3.934-30.796,0-39.937c-17.052-39.657-104.031-52.653-117.226-53.803"/>
			<path display="inline" fill="#6D6F70" d="M785.958,562.862c-17.507,0-25.412-9.521-28.968-17.601
				c-4.321-9.804-3.777-24.629,4.632-31.486c3.776-3.09,7.353-3.579,9.727-3.908c1.365-0.187,1.843-0.274,2.309-0.566
				c3.145-2.627,1.53-21.326-2.724-31.231c-14.655-34.076-92.838-47.979-111.411-49.595c-3.848-0.334-6.699-3.732-6.364-7.581
				c0.33-3.848,3.729-6.707,7.573-6.365c1.022,0.089,102.832,10.983,123.06,58.011c2.472,5.753,12.472,39.163-2.725,48.639
				c-3.038,1.896-5.795,2.276-7.808,2.552c-1.74,0.24-2.109,0.327-2.795,0.886c-2.341,1.908-3.082,9.526-0.667,15.01
				c1.948,4.426,5.641,9.581,16.952,9.232c5.879-0.13,11.574-2.949,15.633-7.73c3.305-3.896,5.019-8.599,4.491-12.271
				c-0.241-1.652-0.33-3.302-0.404-4.854c-0.028-0.521-0.058-1.127-0.095-1.683c-1.868-0.426-3.47-1.434-4.604-2.898
				c-2.8-3.616-1.784-7.819-0.375-13.641c2.803-11.631,8.039-33.292-6.204-62.262c-8.655-17.602-20.012-27.202-50.665-42.804
				c-25.817-13.142-54.308-20.811-84.718-22.793c-3.847-0.25-6.774-3.579-6.521-7.435c0.255-3.857,3.523-6.795,7.438-6.527
				c32.307,2.105,62.636,10.276,90.145,24.281c29.584,15.064,45.654,26.255,56.88,49.104c16.472,33.513,10.242,59.322,7.249,71.725
				c-0.089,0.361-0.184,0.747-0.272,1.129c5.213,3.171,5.562,10.059,5.719,13.101c0.058,1.14,0.104,2.35,0.283,3.565
				c1.099,7.632-1.766,16.35-7.674,23.312c-6.637,7.843-16.125,12.461-26.004,12.676
				C786.691,562.857,786.32,562.862,785.958,562.862 M808.261,522.548h0.034H808.261z M808.35,508.544h0.008H808.35z"/>
		</g>
		<path fill="#E6E9EC" d="M258.32,385.381c-40.725,2.656-70.34,14.839-87.431,23.535c-30.406,15.484-43.963,26.001-53.771,45.958
			c-22.176,45.102-0.281,75.003-6.762,75.108c-6.275,0.103-4.683,6.155-5.566,12.319c-1.726,11.978,10.281,27.632,26.894,27.993
			c11.495,0.252,19.403-4.06,23.52-13.414c3.251-7.386,2.904-18.71-2.654-23.248c-4.126-3.357-7.404-1.508-11.315-3.95
			c-8.737-5.445-3.934-30.798,0-39.938c17.05-39.658,104.033-52.652,117.226-53.805"/>
		<path fill="#6D6F70" d="M132.63,577.305c-0.361,0-0.731-0.005-1.093-0.013c-9.879-0.216-19.366-4.834-26.002-12.677
			c-5.91-6.962-8.773-15.68-7.676-23.312c0.178-1.217,0.228-2.43,0.286-3.564c0.156-3.043,0.503-9.933,5.718-13.1
			c-0.089-0.384-0.183-0.772-0.272-1.132c-2.993-12.4-9.224-38.211,7.248-71.724c11.227-22.848,27.296-34.039,56.879-49.104
			c27.511-14.006,57.839-22.176,90.144-24.282c3.917-0.266,7.186,2.67,7.44,6.529c0.253,3.855-2.673,7.185-6.521,7.435
			c-30.408,1.983-58.9,9.652-84.715,22.793c-30.655,15.602-42.01,25.203-50.667,42.805c-14.241,28.971-9.005,50.631-6.205,62.262
			c1.41,5.822,2.426,10.024-0.375,13.641c-1.132,1.465-2.734,2.473-4.603,2.898c-0.036,0.556-0.067,1.162-0.093,1.679
			c-0.076,1.556-0.165,3.202-0.406,4.857c-0.527,3.675,1.187,8.374,4.491,12.274c4.059,4.777,9.755,7.598,15.633,7.726
			c11.311,0.351,15.004-4.804,16.952-9.23c2.415-5.483,1.674-13.102-0.667-15.011c-0.683-0.558-1.053-0.645-2.792-0.885
			c-2.016-0.278-4.772-0.655-7.81-2.555c-15.196-9.477-5.196-42.885-2.726-48.636c20.227-47.027,122.038-57.923,123.06-58.013
			c3.844-0.338,7.243,2.52,7.573,6.368c0.334,3.849-2.515,7.243-6.364,7.579c-18.572,1.617-96.754,15.52-111.411,49.595
			c-4.255,9.906-5.869,28.606-2.725,31.231c0.468,0.293,0.946,0.378,2.311,0.568c2.373,0.33,5.949,0.817,9.727,3.908
			c8.408,6.855,8.952,21.68,4.63,31.483C158.043,567.784,150.14,577.305,132.63,577.305 M110.293,536.991h0.035H110.293z
			 M110.231,522.987h0.009H110.231z"/>
		<g>
			<path fill="#E6E9EC" d="M655.21,418.987c37.163-16.863,60.57-38.715,73.491-52.889c22.977-25.22,31.947-39.85,34.08-61.983
				c4.829-50.025-26.219-70.271-20.192-72.658c5.834-2.315,2.207-7.411,0.86-13.489c-2.612-11.815-19.379-22.225-35.046-16.699
				c-10.842,3.825-16.724,10.648-17.268,20.855c-0.432,8.059,3.89,18.529,10.685,20.812c5.057,1.687,7.464-1.203,11.984-0.298
				c10.097,2.012,14.552,27.425,14.104,37.367c-1.95,43.124-78.745,85.989-90.682,91.726"/>
			<path fill="#6D6F70" d="M705.043,195.049c0.34-0.129,0.688-0.256,1.027-0.377c9.316-3.287,19.825-2.314,28.807,2.681
				c7.985,4.427,13.74,11.572,15.404,19.099c0.266,1.202,0.648,2.354,0.998,3.438c0.922,2.9,3.031,9.469-0.725,14.275
				c0.214,0.327,0.442,0.655,0.65,0.962c7.182,10.545,22.124,32.495,18.542,69.665c-2.437,25.341-13.519,41.484-35.876,66.021
				c-20.802,22.816-46.283,41.167-75.767,54.541c-3.576,1.636-7.666,0.042-9.267-3.478c-1.602-3.518-0.041-7.664,3.477-9.259
				c27.752-12.59,51.697-29.825,71.208-51.233c23.175-25.421,30.409-38.413,32.291-57.938c3.101-32.132-9.447-50.551-16.175-60.445
				c-3.38-4.947-5.811-8.521-4.467-12.891c0.544-1.772,1.686-3.28,3.283-4.339c-0.16-0.531-0.35-1.11-0.504-1.604
				c-0.482-1.481-0.979-3.056-1.335-4.688c-0.807-3.621-4.067-7.415-8.534-9.894c-5.494-3.038-11.815-3.669-17.355-1.713
				c-10.704,3.668-12.342,9.794-12.604,14.623c-0.322,5.981,3.057,12.85,5.927,13.807c0.839,0.282,1.213,0.231,2.925-0.155
				c1.985-0.453,4.697-1.075,8.213-0.369c17.557,3.5,19.998,38.287,19.716,44.543c-2.322,51.14-93.729,97.274-94.656,97.721
				c-3.473,1.678-7.661,0.204-9.332-3.281c-1.669-3.485-0.199-7.667,3.28-9.341c16.81-8.069,85.045-48.679,86.726-85.733
				c0.486-10.771-4.606-28.834-8.472-30.184c-0.541-0.106-1.022-0.022-2.369,0.286c-2.333,0.531-5.853,1.336-10.478-0.223
				c-10.284-3.446-16.03-17.125-15.445-27.822C684.629,212.925,688.662,201.228,705.043,195.049 M740.175,224.877l-0.033,0.015
				L740.175,224.877z M745.176,237.958l-0.009,0.004L745.176,237.958z"/>
		</g>
		<path fill="#BCBFC1" d="M555.268,251.982c2.087,2.527,8.238,53.172,7.033,66.147c-1.191,12.981-5.852,66.937-9.744,78.166
			c-3.895,11.23-5.826,13.765-10.794,31.125c-4.977,17.357-19.285,108.786-19.755,132.357
			c-2.264,51.951,51.999,72.114,65.847,72.124c45.21,0.029,53.765-17.037,63.982-35.389c4.417-7.952,10.051-29.455,10.051-40.437
			c0-10.992-4.032-19.961-5.285-35.804c-0.582-7.236-1.962-49.343-0.919-104.137c1.543-81.206,4.754-182.095,4.754-182.095
			c0.852-6.627,0.474-10.084,0.474-19.448c0-9.361-8.43-40.038-34.005-50.946c-5.9-2.52-29.432-16.612-57.2-8.12
			c-29.414,8.992-59.124,34.615-67.924,41.495c-18.935,14.805-17.503,28.316-13.791,37.256
			c11.863,28.572,30.214,26.489,36.618,26.495c4.692,0,33.362-12.362,33.362-12.362"/>
		<path fill="#BCBFC1" d="M259.085,259.515c2.083,2.525,8.234,53.169,7.032,66.146c-1.198,12.974-5.852,66.934-9.746,78.162
			c-3.895,11.229-5.823,13.769-10.798,31.128c-4.972,17.36-19.282,108.783-19.752,132.354
			c-2.264,51.956,52.001,72.116,65.852,72.123c45.206,0.032,53.768-17.032,63.979-35.386c4.422-7.952,10.054-29.452,10.054-40.442
			c0-10.983-4.037-19.949-5.29-35.795c-0.574-7.24-1.96-49.349-0.921-104.142c1.545-81.204,4.756-182.094,4.756-182.094
			c0.859-6.626,0.471-10.082,0.471-19.446c0-9.362-8.429-40.041-34-50.946c-5.906-2.52-29.434-16.613-57.2-8.121
			c-29.418,8.996-59.125,34.617-67.924,41.497c-18.935,14.803-17.5,28.313-13.79,37.255c11.858,28.57,30.209,26.49,36.617,26.494
			c4.691,0.001,33.357-12.362,33.357-12.362"/>
		<path fill="#6D6F70" d="M291.781,647.43h-0.114c-11.216-0.013-36.038-8.607-53.68-27.048
			c-14.067-14.698-21.033-33.172-20.152-53.422c0.466-23.601,14.625-115.262,20.052-134.214c3.375-11.778,5.392-16.943,7.527-22.415
			c1.042-2.664,2.111-5.403,3.405-9.129c2.17-6.252,5.194-30.641,8.991-72.49l0.349-3.79c0.912-9.89-2.857-42.991-5.153-56.62
			c-13.033,5.313-21.282,7.996-24.58,7.996h-0.002l-1.104,0.013c-8.103,0.137-29.642,0.488-42.896-31.438
			c-4.848-11.68-5.964-29.251,16.249-46.619c0.899-0.703,2.022-1.608,3.345-2.672c11.775-9.476,39.356-31.673,67.167-40.175
			c27.698-8.478,51.49,3.025,60.445,7.358c0.921,0.443,1.667,0.814,2.233,1.05c29.65,12.651,38.861,47.166,38.861,58.307
			c0,2.433,0.029,4.46,0.047,6.248c0.066,4.978,0.116,8.604-0.536,13.832c-0.216,6.834-3.264,103.872-4.744,181.617
			c-1.057,55.687,0.411,97.189,0.897,103.35c0.571,7.2,1.744,12.819,2.875,18.255c1.254,6.023,2.44,11.708,2.44,18.175
			c0,11.878-5.688,34.659-11.064,44.331l-0.598,1.074C351.555,627.895,340.707,647.43,291.781,647.43 M267.757,261.259
			c4.016,16.825,7.065,57.117,6.329,65.135l-0.343,3.768c-2.919,32.146-6.369,66.352-9.812,76.281
			c-1.373,3.962-2.51,6.875-3.616,9.708c-1.997,5.111-3.882,9.938-7.049,21c-4.918,17.164-19.012,108.477-19.446,130.317
			c-0.703,16.2,4.589,30.221,15.724,41.86c15.055,15.737,35.956,22.101,42.132,22.107h0.11c39.512,0,46.907-13.324,56.273-30.196
			l0.602-1.087c3.74-6.721,9.047-26.757,9.047-36.553c0-4.82-0.973-9.497-2.102-14.91c-1.18-5.646-2.514-12.048-3.16-20.262
			c-0.525-6.579-2.032-47.847-0.943-104.918c1.522-80.32,4.724-181.184,4.756-182.194c0.01-0.257,0.028-0.514,0.064-0.768
			c0.557-4.317,0.52-7.034,0.457-11.971c-0.023-1.845-0.052-3.94-0.052-6.454c0-6.871-6.98-34.138-29.143-43.589
			c-0.738-0.318-1.72-0.784-2.92-1.37c-8.105-3.916-27.093-13.103-48.805-6.46c-24.863,7.601-50.76,28.44-61.819,37.341
			c-1.391,1.121-2.573,2.071-3.517,2.809c-15.497,12.115-13.887,21.719-11.332,27.887c9.09,21.891,21.294,21.682,27.867,21.581
			l1.029-0.014c3.485-0.604,18.447-6.502,30.527-11.711c4.057-1.747,8.765,0.12,10.51,4.176
			C270.397,255.72,269.759,259.009,267.757,261.259 M228.389,260.305c-0.053,0-0.106,0-0.167,0h0.209H228.389z"/>
		<path fill="#6D6F70" d="M587.964,639.899h-0.109c-11.229-0.006-36.051-8.614-53.695-27.059
			c-14.054-14.697-21.027-33.168-20.138-53.417c0.463-23.585,14.618-115.244,20.053-134.205c3.377-11.786,5.396-16.952,7.523-22.429
			c1.044-2.657,2.109-5.396,3.402-9.116c2.168-6.255,5.197-30.648,9-72.504l0.345-3.775c0.913-9.889-2.853-42.992-5.152-56.62
			c-13.037,5.308-21.288,7.993-24.583,7.993h-0.008l-1.098,0.014c-8.104,0.143-29.644,0.489-42.897-31.44
			c-4.85-11.678-5.964-29.249,16.252-46.62c0.895-0.699,2.009-1.601,3.331-2.659c11.779-9.48,39.361-31.679,67.18-40.184
			c27.701-8.479,51.482,3.03,60.443,7.359c0.917,0.444,1.668,0.814,2.234,1.054c29.653,12.646,38.861,47.16,38.861,58.301
			c0,2.433,0.025,4.458,0.054,6.246c0.062,4.979,0.105,8.607-0.54,13.832c-0.221,6.839-3.27,103.874-4.742,181.614
			c-1.061,55.57,0.407,97.161,0.898,103.358c0.562,7.199,1.739,12.817,2.87,18.253c1.249,6.023,2.441,11.708,2.441,18.175
			c0,11.88-5.688,34.664-11.063,44.33l-0.606,1.085C647.728,620.37,636.885,639.899,587.964,639.899 M563.942,253.723
			c4.015,16.824,7.065,57.128,6.33,65.144l-0.345,3.748c-2.925,32.155-6.368,66.364-9.814,76.3
			c-1.375,3.957-2.504,6.866-3.609,9.696c-1.994,5.114-3.887,9.946-7.058,21.012c-4.624,16.154-18.964,106.351-19.441,130.309
			c-0.703,16.199,4.586,30.217,15.715,41.854c15.058,15.745,35.966,22.116,42.147,22.12h0.107c39.504,0,46.894-13.32,56.26-30.181
			l0.612-1.101c3.737-6.714,9.049-26.756,9.049-36.553c0-4.816-0.977-9.492-2.109-14.91c-1.173-5.646-2.507-12.043-3.163-20.261
			c-0.512-6.623-2.021-47.968-0.94-104.917c1.534-80.327,4.732-181.186,4.762-182.196c0.01-0.256,0.028-0.512,0.06-0.767
			c0.562-4.317,0.521-7.037,0.46-11.971c-0.021-1.849-0.055-3.94-0.055-6.456c0-6.871-6.978-34.135-29.138-43.588
			c-0.742-0.315-1.719-0.785-2.926-1.368c-8.113-3.921-27.098-13.11-48.803-6.464c-24.865,7.604-50.765,28.449-61.822,37.351
			c-1.389,1.114-2.569,2.065-3.511,2.798c-15.499,12.121-13.894,21.723-11.328,27.889c9.079,21.886,21.359,21.675,27.856,21.578
			l1.035-0.011c3.488-0.604,18.447-6.503,30.528-11.711c4.038-1.756,8.754,0.12,10.505,4.176
			C566.58,248.187,565.947,251.475,563.942,253.723 M524.569,252.773c-0.055,0-0.108,0-0.164,0h0.209H524.569z"/>
		<path fill="#6D6F70" d="M452.165,491.251c65.405,1.083,116.876,40.53,119.038,42.204c3.489,2.715,4.118,7.731,1.41,11.217
			c-2.707,3.478-7.73,4.115-11.222,1.42c-0.485-0.381-49.553-37.858-109.492-38.848c-60.585-1-116.249,56.347-116.808,56.921
			c-3.063,3.198-8.123,3.295-11.307,0.244c-3.189-3.054-3.302-8.117-0.248-11.306C326.003,550.535,384.671,490.136,452.165,491.251"
			/>
		<path fill="#6D6F70" d="M444.453,457.434c-5.724,0-12.188-1.061-18.717-4.237c-12.279-5.979-24.783-25.528-21.326-38.978
			c3.279-12.746,10.643-17.648,16.248-19.516c18.481-6.176,42.536,12.486,45.215,14.637c3.447,2.761,4.009,7.796,1.244,11.24
			c-2.764,3.451-7.792,3.998-11.234,1.249c-6.355-5.065-22.109-14.646-30.17-11.947c-0.996,0.329-4.019,1.343-5.811,8.317
			c-1.059,4.115,5.75,17.168,12.838,20.613c12.032,5.857,24.528,0.052,24.649-0.008c3.975-1.886,8.746-0.232,10.665,3.732
			c1.91,3.955,0.297,8.705-3.649,10.646C463.889,453.438,455.57,457.434,444.453,457.434"/>
		<path fill="#F4F5FA" d="M384.66,360.995c0,35.592-19.27,64.444-43.042,64.444c-23.77,0-43.042-28.852-43.042-64.444
			c0-35.592,19.272-64.447,43.042-64.447C365.391,296.548,384.66,325.403,384.66,360.995"/>
		<path fill="#6D6F70" d="M341.619,433.439c-28.62,0-51.039-31.824-51.039-72.444c0-40.624,22.418-72.443,51.039-72.443
			s51.041,31.819,51.041,72.443C392.659,401.615,370.239,433.439,341.619,433.439 M341.619,304.545
			c-18.996,0-35.044,25.85-35.044,56.45c0,30.596,16.048,56.447,35.044,56.447c18.997,0,35.042-25.851,35.042-56.447
			C376.661,330.395,360.615,304.545,341.619,304.545"/>
		<path fill="#F4F5FA" d="M622.231,353.305c0,35.594-19.267,64.446-43.044,64.446c-23.762,0-43.037-28.852-43.037-64.446
			c0-35.59,19.275-64.443,43.037-64.443C602.965,288.862,622.231,317.715,622.231,353.305"/>
		<path fill="#6D6F70" d="M342.555,386.379c-13.547,0-24.161-13.159-24.161-29.961c0-16.801,10.614-29.96,24.161-29.96
			c13.547,0,24.162,13.159,24.162,29.96C366.717,373.22,356.102,386.379,342.555,386.379 M342.555,342.452
			c-3.857,0-8.167,5.971-8.167,13.966s4.311,13.966,8.167,13.966c3.856,0,8.167-5.971,8.167-13.966S346.411,342.452,342.555,342.452
			"/>
		<path fill="#6D6F70" d="M579.195,425.751c-28.623,0-51.042-31.823-51.042-72.442c0-40.622,22.419-72.445,51.042-72.445
			c28.622,0,51.033,31.823,51.033,72.445C630.229,393.928,607.817,425.751,579.195,425.751 M579.195,296.857
			c-18.994,0-35.048,25.851-35.048,56.452c0,30.598,16.054,56.446,35.048,56.446c18.998,0,35.045-25.849,35.045-56.446
			C614.24,322.708,598.193,296.857,579.195,296.857"/>
		<path fill="#6D6F70" d="M578.366,382.949c-13.551,0-24.163-13.16-24.163-29.961c0-16.801,10.612-29.96,24.163-29.96
			c13.541,0,24.161,13.159,24.161,29.96C602.527,369.79,591.907,382.949,578.366,382.949 M578.366,339.024
			c-3.856,0-8.169,5.971-8.169,13.963c0,7.995,4.313,13.967,8.169,13.967c3.854,0,8.162-5.972,8.162-13.967
			C586.528,344.996,582.221,339.024,578.366,339.024"/>
		<g display="none">
			<g display="inline">
				<g>
					<path fill="#6D6F70" d="M321.824,343.465c1.935,0,1.935-3,0-3S319.89,343.465,321.824,343.465L321.824,343.465z"/>
				</g>
			</g>
			<g display="inline">
				<g>
					<path fill="#6D6F70" d="M320.764,343.026c14.01,14.009,28.019,28.018,42.027,42.028c1.369,1.369,3.49-0.752,2.121-2.121
						c-14.009-14.01-28.018-28.02-42.027-42.028C321.516,339.536,319.395,341.657,320.764,343.026L320.764,343.026z"/>
				</g>
			</g>
			<g display="inline">
				<g>
					<path fill="#6D6F70" d="M362.791,340.905c-14.009,14.01-28.018,28.019-42.027,42.028c-1.369,1.369,0.752,3.49,2.121,2.121
						c14.01-14.008,28.019-28.018,42.027-42.028C366.281,341.657,364.16,339.536,362.791,340.905L362.791,340.905z"/>
				</g>
			</g>
		</g>
		<g display="none">
			<g display="inline">
				<g>
					<path fill="#6D6F70" d="M559.317,329.764c1.935,0,1.935-3,0-3S557.383,329.764,559.317,329.764L559.317,329.764z"/>
				</g>
			</g>
			<g display="inline">
				<g>
					<path fill="#6D6F70" d="M558.257,329.325c14.01,14.009,28.02,28.017,42.028,42.027c1.369,1.369,3.49-0.752,2.121-2.121
						c-14.009-14.01-28.019-28.018-42.028-42.027C559.009,325.834,556.888,327.956,558.257,329.325L558.257,329.325z"/>
				</g>
			</g>
			<g display="inline">
				<g>
					<path fill="#6D6F70" d="M600.285,327.204c-14.009,14.01-28.019,28.018-42.028,42.027c-1.369,1.369,0.752,3.49,2.121,2.121
						c14.01-14.009,28.02-28.017,42.028-42.027C603.775,327.956,601.654,325.834,600.285,327.204L600.285,327.204z"/>
				</g>
			</g>
		</g>
		<path fill="#6D6F70" d="M564.808,297.217c1.082,27.448,22.994,47.23,45.642,59.58c7.757,4.231,14.673-7.599,6.913-11.832
			c-18.042-9.837-37.974-25.451-38.853-47.748C578.161,288.413,564.459,288.379,564.808,297.217L564.808,297.217z"/>
		<path fill="#6D6F70" d="M333.023,306.352c-0.878,22.298-20.813,37.911-38.852,47.748c-7.758,4.231-0.846,16.063,6.913,11.832
			c22.648-12.351,44.561-32.133,45.641-59.58C347.074,297.514,333.37,297.546,333.023,306.352L333.023,306.352z"/>
	</g>
	<path fill="#6D6F70" d="M650.518,139.564c14.884-12.033,25.45-25.951,25.115-45.723c-0.08-4.726-5.943-9.159-10.306-5.916
		c-15.558,11.571-14.942,28.935-4.313,44.124c11.987,17.129,32.863,20.396,50.819,11.875c35.396-16.789,14.178-95.748-17.583-76.565
		c-39.682,23.966,11.994,77.489,40.833,83.091c15.304,2.973,34.771-6.695,36.862-23.102c2.586-20.307-10.628-41.481-25.445-54.351
		c-4.362-3.789-11.727-1.458-11.694,4.845c0.139,27.069,20.774,53.425,42.79,67.271c18.934,11.907,49.941,4.074,51.472-21.464
		c1.785-29.783-47.372-126.886-87.308-97.934c-7.078,5.133-0.254,17.028,6.912,11.833c25.123-18.215,60.436,54.786,65.15,71.141
		c6.836,23.708-13.27,34.682-33.031,22.251c-16.396-10.312-32.186-33.399-32.283-53.099c-3.898,1.614-7.797,3.229-11.694,4.843
		c11.712,10.174,21.646,25.126,21.89,41.063c0.229,14.868-20.395,14.544-29.459,10.668c-9.683-4.14-17.511-11.956-24.326-19.743
		c-6.632-7.582-13.674-19.99-9.285-30.224c9.135-21.315,22.19,19.297,22.363,24.071c0.616,16.89-15.021,29.333-31.198,25.95
		c-12.608-2.639-29.106-23.89-14.558-34.71c-3.436-1.973-6.874-3.944-10.31-5.917c0.273,16.212-9.245,26.449-21.1,36.036
		C633.958,135.434,643.715,145.065,650.518,139.564L650.518,139.564z"/>
</g>
</svg>
