<svg id="レイヤー_1" data-name="レイヤー 1" xmlns="http://www.w3.org/2000/svg" viewBox="0 0 300 780"><defs><style>.cls-1{fill:#ffcc25;}.cls-2{fill:#ddd;}.cls-3{fill:#fff;}.cls-4{fill:none;stroke:#000;stroke-miterlimit:10;stroke-width:0.25px;}</style></defs><rect class="cls-1" width="300" height="45"/><rect class="cls-2" y="680" width="300" height="60"/><rect class="cls-2" y="80" width="300" height="60"/><rect class="cls-3" y="260" width="300" height="60"/><rect class="cls-2" y="320" width="300" height="60"/><rect class="cls-3" y="380" width="300" height="60"/><rect class="cls-2" y="440" width="300" height="60"/><rect class="cls-3" y="500" width="300" height="60"/><rect class="cls-2" y="200" width="300" height="60"/><rect class="cls-3" y="140" width="300" height="60"/><rect class="cls-3" y="620" width="300" height="60"/><rect class="cls-2" y="560" width="300" height="60"/><rect class="cls-4" x="50" y="80" width="200" height="10"/><rect class="cls-4" x="50" y="90" width="200" height="10"/><rect class="cls-4" x="50" y="100" width="200" height="10"/><rect class="cls-4" x="50" y="110" width="200" height="10"/><rect class="cls-4" x="50" y="120" width="200" height="10"/><rect class="cls-4" x="50" y="130" width="200" height="10"/><rect class="cls-4" x="50" y="200" width="200" height="10"/><rect class="cls-4" x="50" y="210" width="200" height="10"/><rect class="cls-4" x="50" y="220" width="200" height="10"/><rect class="cls-4" x="50" y="230" width="200" height="10"/><rect class="cls-4" x="50" y="240" width="200" height="10"/><rect class="cls-4" x="50" y="250" width="200" height="10"/><rect class="cls-4" x="50" y="140" width="200" height="10"/><rect class="cls-4" x="50" y="150" width="200" height="10"/><rect class="cls-4" x="50" y="160" width="200" height="10"/><rect class="cls-4" x="50" y="170" width="200" height="10"/><rect class="cls-4" x="50" y="180" width="200" height="10"/><rect class="cls-4" x="50" y="190" width="200" height="10"/><rect class="cls-4" x="50" y="260" width="200" height="10"/><rect class="cls-4" x="50" y="270" width="200" height="10"/><rect class="cls-4" x="50" y="280" width="200" height="10"/><rect class="cls-4" x="50" y="290" width="200" height="10"/><rect class="cls-4" x="50" y="300" width="200" height="10"/><rect class="cls-4" x="50" y="310" width="200" height="10"/><rect class="cls-4" x="50" y="620" width="200" height="10"/><rect class="cls-4" x="50" y="630" width="200" height="10"/><rect class="cls-4" x="50" y="640" width="200" height="10"/><rect class="cls-4" x="50" y="650" width="200" height="10"/><rect class="cls-4" x="50" y="660" width="200" height="10"/><rect class="cls-4" x="50" y="670" width="200" height="10"/><rect class="cls-4" x="50" y="320" width="200" height="10"/><rect class="cls-4" x="50" y="330" width="200" height="10"/><rect class="cls-4" x="50" y="340" width="200" height="10"/><rect class="cls-4" x="50" y="350" width="200" height="10"/><rect class="cls-4" x="50" y="360" width="200" height="10"/><rect class="cls-4" x="50" y="370" width="200" height="10"/><rect class="cls-4" x="50" y="380" width="200" height="10"/><rect class="cls-4" x="50" y="390" width="200" height="10"/><rect class="cls-4" x="50" y="400" width="200" height="10"/><rect class="cls-4" x="50" y="410" width="200" height="10"/><rect class="cls-4" x="50" y="420" width="200" height="10"/><rect class="cls-4" x="50" y="430" width="200" height="10"/><rect class="cls-4" x="50" y="440" width="200" height="10"/><rect class="cls-4" x="50" y="450" width="200" height="10"/><rect class="cls-4" x="50" y="460" width="200" height="10"/><rect class="cls-4" x="50" y="470" width="200" height="10"/><rect class="cls-4" x="50" y="480" width="200" height="10"/><rect class="cls-4" x="50" y="490" width="200" height="10"/><rect class="cls-4" x="50" y="500" width="200" height="10"/><rect class="cls-4" x="50" y="510" width="200" height="10"/><rect class="cls-4" x="50" y="520" width="200" height="10"/><rect class="cls-4" x="50" y="530" width="200" height="10"/><rect class="cls-4" x="50" y="540" width="200" height="10"/><rect class="cls-4" x="50" y="550" width="200" height="10"/><rect class="cls-4" x="50" y="560" width="200" height="10"/><rect class="cls-4" x="50" y="570" width="200" height="10"/><rect class="cls-4" x="50" y="580" width="200" height="10"/><rect class="cls-4" x="50" y="590" width="200" height="10"/><rect class="cls-4" x="50" y="600" width="200" height="10"/><rect class="cls-4" x="50" y="610" width="200" height="10"/><rect class="cls-4" x="50" y="50" width="200" height="10"/><rect class="cls-4" x="50" y="60" width="200" height="10"/><rect class="cls-4" x="50" y="70" width="200" height="10"/><rect class="cls-4" x="50" y="680" width="200" height="10"/><rect class="cls-4" x="50" y="690" width="200" height="10"/><rect class="cls-4" x="50" y="700" width="200" height="10"/><rect class="cls-4" x="50" y="710" width="200" height="10"/><rect class="cls-4" x="50" y="720" width="200" height="10"/><rect class="cls-4" x="50" y="730" width="200" height="10"/><rect class="cls-4" x="50" y="740" width="200" height="10"/><rect class="cls-4" x="50" y="750" width="200" height="10"/><rect class="cls-4" x="50" y="760" width="200" height="10"/><path d="M20.29,84.51V76.46h0l-1.48.85-.24-.74,1.86-1h.85v9Z"/><path d="M24.26,80.05c0-3.14,1.23-4.67,2.91-4.67s2.74,1.61,2.74,4.55c0,3.12-1.09,4.72-2.88,4.72C25.4,84.65,24.26,83.05,24.26,80.05ZM28.9,80c0-2.25-.54-3.79-1.79-3.79-1.07,0-1.83,1.42-1.83,3.79s.66,3.86,1.79,3.86C28.4,83.84,28.9,82.11,28.9,80Z"/><path d="M31.11,79a.71.71,0,1,1,.71.77A.72.72,0,0,1,31.11,79Zm0,4.91a.71.71,0,1,1,.71.75A.71.71,0,0,1,31.11,83.9Z"/><path d="M33.49,80.05c0-3.14,1.22-4.67,2.9-4.67s2.75,1.61,2.75,4.55c0,3.12-1.09,4.72-2.88,4.72C34.63,84.65,33.49,83.05,33.49,80.05ZM38.13,80c0-2.25-.54-3.79-1.8-3.79-1.06,0-1.82,1.42-1.82,3.79s.66,3.86,1.79,3.86C37.63,83.84,38.13,82.11,38.13,80Z"/><path d="M40.1,80.05c0-3.14,1.23-4.67,2.9-4.67s2.75,1.61,2.75,4.55c0,3.12-1.09,4.72-2.88,4.72C41.24,84.65,40.1,83.05,40.1,80.05ZM44.74,80c0-2.25-.54-3.79-1.8-3.79-1.06,0-1.82,1.42-1.82,3.79s.66,3.86,1.79,3.86C44.24,83.84,44.74,82.11,44.74,80Z"/><path d="M20.29,143.88v-8h0l-1.48.86-.24-.75,1.86-1h.85v9Z"/><path d="M26.9,143.88v-8h0l-1.48.86-.24-.75,1.86-1h.85v9Z"/><path d="M31.11,138.37a.71.71,0,1,1,.71.76A.71.71,0,0,1,31.11,138.37Zm0,4.9a.71.71,0,1,1,.71.76A.72.72,0,0,1,31.11,143.27Z"/><path d="M33.49,139.42c0-3.14,1.22-4.66,2.9-4.66s2.75,1.6,2.75,4.54c0,3.12-1.09,4.73-2.88,4.73C34.63,144,33.49,142.42,33.49,139.42Zm4.64-.07c0-2.24-.54-3.79-1.8-3.79-1.06,0-1.82,1.43-1.82,3.79s.66,3.86,1.79,3.86C37.63,143.21,38.13,141.48,38.13,139.35Z"/><path d="M40.1,139.42c0-3.14,1.23-4.66,2.9-4.66s2.75,1.6,2.75,4.54c0,3.12-1.09,4.73-2.88,4.73C41.24,144,40.1,142.42,40.1,139.42Zm4.64-.07c0-2.24-.54-3.79-1.8-3.79-1.06,0-1.82,1.43-1.82,3.79s.66,3.86,1.79,3.86C44.24,143.21,44.74,141.48,44.74,139.35Z"/><path d="M20.29,204.17v-8h0l-1.48.85-.24-.75,1.86-1h.85v9Z"/><path d="M29.68,204.17H24.37v-.61l.88-.92c2.13-2.16,3.21-3.47,3.21-4.93a1.62,1.62,0,0,0-1.71-1.85,3,3,0,0,0-1.8.75l-.34-.7a3.53,3.53,0,0,1,2.33-.88,2.4,2.4,0,0,1,2.53,2.56c0,1.69-1.19,3.13-3,5l-.71.74v0h4Z"/><path d="M31.11,198.66a.71.71,0,1,1,.71.76A.71.71,0,0,1,31.11,198.66Zm0,4.9a.71.71,0,1,1,.71.76A.72.72,0,0,1,31.11,203.56Z"/><path d="M33.49,199.71c0-3.14,1.22-4.66,2.9-4.66s2.75,1.6,2.75,4.54c0,3.12-1.09,4.73-2.88,4.73C34.63,204.32,33.49,202.71,33.49,199.71Zm4.64-.07c0-2.24-.54-3.79-1.8-3.79-1.06,0-1.82,1.43-1.82,3.79s.66,3.86,1.79,3.86C37.63,203.5,38.13,201.77,38.13,199.64Z"/><path d="M40.1,199.71c0-3.14,1.23-4.66,2.9-4.66s2.75,1.6,2.75,4.54c0,3.12-1.09,4.73-2.88,4.73C41.24,204.32,40.1,202.71,40.1,199.71Zm4.64-.07c0-2.24-.54-3.79-1.8-3.79-1.06,0-1.82,1.43-1.82,3.79s.66,3.86,1.79,3.86C44.24,203.5,44.74,201.77,44.74,199.64Z"/><path d="M20.29,264v-8h0l-1.48.85-.24-.74,1.86-1h.85v9Z"/><path d="M27.55,259.15a2.3,2.3,0,0,1,1.95,2.33c0,1.43-1,2.67-3,2.67a4,4,0,0,1-2.13-.57l.3-.77a3.59,3.59,0,0,0,1.84.54,1.82,1.82,0,0,0,2-1.88c0-1.32-1.11-1.92-2.29-1.92h-.59v-.75h.59a1.83,1.83,0,0,0,2-1.66,1.39,1.39,0,0,0-1.55-1.45,3,3,0,0,0-1.64.58l-.3-.73a3.8,3.8,0,0,1,2.14-.67A2.11,2.11,0,0,1,29.18,257a2.28,2.28,0,0,1-1.63,2.13Z"/><path d="M31.11,258.49a.71.71,0,1,1,1.42,0,.71.71,0,1,1-1.42,0Zm0,4.91a.71.71,0,1,1,.71.75A.71.71,0,0,1,31.11,263.4Z"/><path d="M33.49,259.55c0-3.14,1.22-4.67,2.9-4.67s2.75,1.61,2.75,4.55c0,3.12-1.09,4.72-2.88,4.72C34.63,264.15,33.49,262.55,33.49,259.55Zm4.64-.07c0-2.25-.54-3.79-1.8-3.79-1.06,0-1.82,1.42-1.82,3.79s.66,3.86,1.79,3.86C37.63,263.34,38.13,261.61,38.13,259.48Z"/><path d="M40.1,259.55c0-3.14,1.23-4.67,2.9-4.67s2.75,1.61,2.75,4.55c0,3.12-1.09,4.72-2.88,4.72C41.24,264.15,40.1,262.55,40.1,259.55Zm4.64-.07c0-2.25-.54-3.79-1.8-3.79-1.06,0-1.82,1.42-1.82,3.79s.66,3.86,1.79,3.86C44.24,263.34,44.74,261.61,44.74,259.48Z"/><path d="M20.29,324.34v-8h0l-1.48.85-.24-.74,1.86-1h.85v9Z"/><path d="M28.89,324.34h-.95v-2.52H24v-.64l3.84-5.83h1v5.7h1.23v.77H28.89ZM25,321.05h2.91v-3.19c0-.49,0-1,0-1.44h0c-.27.55-.49.94-.71,1.34L25,321Z"/><path d="M31.11,318.82a.71.71,0,1,1,.71.77A.72.72,0,0,1,31.11,318.82Zm0,4.91a.71.71,0,1,1,.71.75A.71.71,0,0,1,31.11,323.73Z"/><path d="M33.49,319.88c0-3.15,1.22-4.67,2.9-4.67s2.75,1.61,2.75,4.55c0,3.11-1.09,4.72-2.88,4.72C34.63,324.48,33.49,322.87,33.49,319.88Zm4.64-.08c0-2.24-.54-3.79-1.8-3.79-1.06,0-1.82,1.43-1.82,3.79s.66,3.87,1.79,3.87C37.63,323.67,38.13,321.94,38.13,319.8Z"/><path d="M40.1,319.88c0-3.15,1.23-4.67,2.9-4.67s2.75,1.61,2.75,4.55c0,3.11-1.09,4.72-2.88,4.72C41.24,324.48,40.1,322.87,40.1,319.88Zm4.64-.08c0-2.24-.54-3.79-1.8-3.79-1.06,0-1.82,1.43-1.82,3.79s.66,3.87,1.79,3.87C44.24,323.67,44.74,321.94,44.74,319.8Z"/><path d="M20.29,383.75v-8h0l-1.48.85-.24-.74,1.86-1.05h.85v9Z"/><path d="M29.36,374.77v.83H26.13l-.37,2.54a5.67,5.67,0,0,1,.7-.05,2.77,2.77,0,0,1,3,2.76,3,3,0,0,1-3.09,3,4.06,4.06,0,0,1-2.07-.53l.29-.78a3.33,3.33,0,0,0,1.78.51A2,2,0,0,0,28.47,381c0-1.23-.79-2.1-2.47-2.1a6.86,6.86,0,0,0-1.15.09l.56-4.19Z"/><path d="M31.11,378.24a.71.71,0,1,1,.71.77A.73.73,0,0,1,31.11,378.24Zm0,4.9a.71.71,0,1,1,.71.76A.71.71,0,0,1,31.11,383.14Z"/><path d="M33.49,379.29c0-3.14,1.22-4.66,2.9-4.66s2.75,1.61,2.75,4.54c0,3.12-1.09,4.73-2.88,4.73C34.63,383.9,33.49,382.29,33.49,379.29Zm4.64-.07c0-2.24-.54-3.79-1.8-3.79-1.06,0-1.82,1.43-1.82,3.79s.66,3.86,1.79,3.86C37.63,383.08,38.13,381.36,38.13,379.22Z"/><path d="M40.1,379.29c0-3.14,1.23-4.66,2.9-4.66s2.75,1.61,2.75,4.54c0,3.12-1.09,4.73-2.88,4.73C41.24,383.9,40.1,382.29,40.1,379.29Zm4.64-.07c0-2.24-.54-3.79-1.8-3.79-1.06,0-1.82,1.43-1.82,3.79s.66,3.86,1.79,3.86C44.24,383.08,44.74,381.36,44.74,379.22Z"/><path d="M20.29,443.52v-8h0l-1.48.85-.24-.74,1.86-1h.85v9Z"/><path d="M25.29,438.76a2.53,2.53,0,0,1,2.1-1.11,2.57,2.57,0,0,1,2.55,2.87,2.88,2.88,0,0,1-2.76,3.14c-1.75,0-2.93-1.45-2.93-3.78s1.13-4.92,4-5.4a6.73,6.73,0,0,1,.84-.09v.83a3.77,3.77,0,0,0-3.88,3.54Zm3.64,1.83c0-1.38-.75-2.18-1.82-2.18a2,2,0,0,0-1.86,1.7c0,1.65.7,2.77,1.95,2.77C28.24,442.88,28.93,442,28.93,440.59Z"/><path d="M31.11,438a.71.71,0,1,1,.71.77A.72.72,0,0,1,31.11,438Zm0,4.91a.71.71,0,1,1,.71.75A.71.71,0,0,1,31.11,442.91Z"/><path d="M33.49,439.06c0-3.14,1.22-4.67,2.9-4.67s2.75,1.61,2.75,4.55c0,3.12-1.09,4.72-2.88,4.72C34.63,443.66,33.49,442.06,33.49,439.06Zm4.64-.07c0-2.25-.54-3.79-1.8-3.79-1.06,0-1.82,1.42-1.82,3.79s.66,3.86,1.79,3.86C37.63,442.85,38.13,441.12,38.13,439Z"/><path d="M40.1,439.06c0-3.14,1.23-4.67,2.9-4.67s2.75,1.61,2.75,4.55c0,3.12-1.09,4.72-2.88,4.72C41.24,443.66,40.1,442.06,40.1,439.06Zm4.64-.07c0-2.25-.54-3.79-1.8-3.79-1.06,0-1.82,1.42-1.82,3.79s.66,3.86,1.79,3.86C44.24,442.85,44.74,441.12,44.74,439Z"/><path d="M20.29,504.88v-8.05h0l-1.48.86-.24-.75,1.86-1h.85v9Z"/><path d="M24.54,495.9H29.8v.64l-3.75,8.34H25l3.75-8.13v0H24.54Z"/><path d="M31.11,499.37a.71.71,0,1,1,.71.76A.71.71,0,0,1,31.11,499.37Zm0,4.9a.71.71,0,1,1,.71.76A.72.72,0,0,1,31.11,504.27Z"/><path d="M33.49,500.42c0-3.14,1.22-4.66,2.9-4.66s2.75,1.6,2.75,4.54c0,3.12-1.09,4.73-2.88,4.73C34.63,505,33.49,503.42,33.49,500.42Zm4.64-.07c0-2.24-.54-3.79-1.8-3.79-1.06,0-1.82,1.43-1.82,3.79s.66,3.86,1.79,3.86C37.63,504.21,38.13,502.48,38.13,500.35Z"/><path d="M40.1,500.42c0-3.14,1.23-4.66,2.9-4.66s2.75,1.6,2.75,4.54c0,3.12-1.09,4.73-2.88,4.73C41.24,505,40.1,503.42,40.1,500.42Zm4.64-.07c0-2.24-.54-3.79-1.8-3.79-1.06,0-1.82,1.43-1.82,3.79s.66,3.86,1.79,3.86C44.24,504.21,44.74,502.48,44.74,500.35Z"/><path d="M20.29,564.74v-8h0l-1.48.85-.24-.74,1.86-1h.85v9Z"/><path d="M26,560a2.27,2.27,0,0,1-1.41-2,2.37,2.37,0,0,1,2.55-2.34,2.2,2.2,0,0,1,2.41,2.18,2.36,2.36,0,0,1-1.48,2.13v0a2.56,2.56,0,0,1,1.79,2.35,2.63,2.63,0,0,1-2.83,2.57,2.5,2.5,0,0,1-2.77-2.39A2.66,2.66,0,0,1,26,560Zm2.84,2.44c0-1.13-.76-1.7-1.94-2.08a2.1,2.1,0,0,0-1.62,2,1.7,1.7,0,0,0,1.76,1.8A1.68,1.68,0,0,0,28.88,562.42Zm-3.3-4.57c0,1,.67,1.49,1.67,1.79a1.92,1.92,0,0,0,1.37-1.76,1.42,1.42,0,0,0-1.48-1.54A1.46,1.46,0,0,0,25.58,557.85Z"/><path d="M31.11,559.22a.71.71,0,1,1,.71.77A.72.72,0,0,1,31.11,559.22Zm0,4.9a.71.71,0,1,1,.71.76A.71.71,0,0,1,31.11,564.12Z"/><path d="M33.49,560.28c0-3.15,1.22-4.67,2.9-4.67s2.75,1.61,2.75,4.55c0,3.11-1.09,4.72-2.88,4.72C34.63,564.88,33.49,563.27,33.49,560.28Zm4.64-.08c0-2.24-.54-3.79-1.8-3.79-1.06,0-1.82,1.43-1.82,3.79s.66,3.87,1.79,3.87C37.63,564.07,38.13,562.34,38.13,560.2Z"/><path d="M40.1,560.28c0-3.15,1.23-4.67,2.9-4.67s2.75,1.61,2.75,4.55c0,3.11-1.09,4.72-2.88,4.72C41.24,564.88,40.1,563.27,40.1,560.28Zm4.64-.08c0-2.24-.54-3.79-1.8-3.79-1.06,0-1.82,1.43-1.82,3.79s.66,3.87,1.79,3.87C44.24,564.07,44.74,562.34,44.74,560.2Z"/><path d="M20.29,624.61v-8.05h0l-1.48.85-.24-.74,1.86-1h.85v9Z"/><path d="M28.89,620.36a2.53,2.53,0,0,1-4.54-1.72,3,3,0,0,1,2.84-3.16c1.68,0,2.75,1.47,2.75,3.76,0,3-1.52,5.06-3.82,5.42a5.54,5.54,0,0,1-1.07.08v-.83a4,4,0,0,0,.93-.06c1.51-.21,2.65-1.43,2.95-3.49Zm-3.54-1.78a1.78,1.78,0,0,0,1.72,2,1.81,1.81,0,0,0,1.86-1.46c0-1.73-.64-2.89-1.82-2.89S25.35,617.23,25.35,618.58Z"/><path d="M31.13,619.09a.71.71,0,1,1,1.41,0,.71.71,0,1,1-1.41,0Zm0,4.91a.71.71,0,1,1,.7.75A.7.7,0,0,1,31.13,624Z"/><path d="M33.5,620.15c0-3.14,1.23-4.67,2.91-4.67s2.74,1.61,2.74,4.55c0,3.12-1.09,4.72-2.88,4.72C34.64,624.75,33.5,623.15,33.5,620.15Zm4.64-.07c0-2.25-.54-3.79-1.79-3.79-1.07,0-1.83,1.42-1.83,3.79s.66,3.86,1.79,3.86C37.64,623.94,38.14,622.21,38.14,620.08Z"/><path d="M40.11,620.15c0-3.14,1.23-4.67,2.91-4.67s2.74,1.61,2.74,4.55c0,3.12-1.09,4.72-2.88,4.72C41.25,624.75,40.11,623.15,40.11,620.15Zm4.65-.07c0-2.25-.54-3.79-1.8-3.79-1.07,0-1.83,1.42-1.83,3.79s.66,3.86,1.79,3.86C44.25,623.94,44.76,622.21,44.76,620.08Z"/><path d="M23.07,684.48H17.76v-.61l.87-.92c2.14-2.16,3.22-3.47,3.22-4.93a1.62,1.62,0,0,0-1.72-1.85,3,3,0,0,0-1.8.75l-.33-.7a3.53,3.53,0,0,1,2.33-.88,2.4,2.4,0,0,1,2.53,2.56c0,1.69-1.19,3.13-3.05,5l-.71.74v0h4Z"/><path d="M24.26,680c0-3.14,1.23-4.66,2.91-4.66s2.74,1.6,2.74,4.54c0,3.12-1.09,4.73-2.88,4.73C25.4,684.63,24.26,683,24.26,680ZM28.9,680c0-2.24-.54-3.79-1.79-3.79-1.07,0-1.83,1.43-1.83,3.79s.66,3.86,1.79,3.86C28.4,683.81,28.9,682.08,28.9,680Z"/><path d="M31.11,679a.71.71,0,1,1,.71.76A.71.71,0,0,1,31.11,679Zm0,4.9a.71.71,0,1,1,.71.76A.72.72,0,0,1,31.11,683.87Z"/><path d="M33.49,680c0-3.14,1.22-4.66,2.9-4.66s2.75,1.6,2.75,4.54c0,3.12-1.09,4.73-2.88,4.73C34.63,684.63,33.49,683,33.49,680Zm4.64-.07c0-2.24-.54-3.79-1.8-3.79-1.06,0-1.82,1.43-1.82,3.79s.66,3.86,1.79,3.86C37.63,683.81,38.13,682.08,38.13,680Z"/><path d="M40.1,680c0-3.14,1.23-4.66,2.9-4.66s2.75,1.6,2.75,4.54c0,3.12-1.09,4.73-2.88,4.73C41.24,684.63,40.1,683,40.1,680Zm4.64-.07c0-2.24-.54-3.79-1.8-3.79-1.06,0-1.82,1.43-1.82,3.79s.66,3.86,1.79,3.86C44.24,683.81,44.74,682.08,44.74,680Z"/><path d="M23.07,744.65H17.76V744l.87-.92c2.14-2.16,3.22-3.47,3.22-4.93a1.62,1.62,0,0,0-1.72-1.85,3,3,0,0,0-1.8.75l-.33-.7a3.52,3.52,0,0,1,2.33-.87,2.39,2.39,0,0,1,2.53,2.55c0,1.69-1.19,3.13-3.05,5l-.71.75v0h4Z"/><path d="M26.9,744.65v-8h0l-1.48.85-.24-.74L27,735.66h.85v9Z"/><path d="M31.11,739.13a.71.71,0,1,1,.71.77A.72.72,0,0,1,31.11,739.13Zm0,4.9a.71.71,0,1,1,.71.76A.71.71,0,0,1,31.11,744Z"/><path d="M33.49,740.18c0-3.14,1.22-4.66,2.9-4.66s2.75,1.61,2.75,4.54c0,3.12-1.09,4.73-2.88,4.73C34.63,744.79,33.49,743.18,33.49,740.18Zm4.64-.07c0-2.24-.54-3.79-1.8-3.79-1.06,0-1.82,1.43-1.82,3.79S35.17,744,36.3,744C37.63,744,38.13,742.25,38.13,740.11Z"/><path d="M40.1,740.18c0-3.14,1.23-4.66,2.9-4.66s2.75,1.61,2.75,4.54c0,3.12-1.09,4.73-2.88,4.73C41.24,744.79,40.1,743.18,40.1,740.18Zm4.64-.07c0-2.24-.54-3.79-1.8-3.79-1.06,0-1.82,1.43-1.82,3.79s.66,3.86,1.79,3.86C44.24,744,44.74,742.25,44.74,740.11Z"/><path d="M257.41,84.53v-8h0l-1.48.86-.24-.75,1.86-1h.85v9Z"/><path d="M261.38,80.07c0-3.14,1.23-4.66,2.91-4.66S267,77,267,80c0,3.12-1.09,4.73-2.88,4.73C262.52,84.68,261.38,83.07,261.38,80.07ZM266,80c0-2.24-.54-3.79-1.8-3.79-1.07,0-1.83,1.43-1.83,3.79s.66,3.86,1.79,3.86C265.52,83.86,266,82.13,266,80Z"/><path d="M268.24,79a.71.71,0,1,1,.7.76A.7.7,0,0,1,268.24,79Zm0,4.9a.71.71,0,1,1,.7.76A.71.71,0,0,1,268.24,83.92Z"/><path d="M270.61,80.07c0-3.14,1.22-4.66,2.9-4.66s2.75,1.6,2.75,4.54c0,3.12-1.09,4.73-2.88,4.73C271.75,84.68,270.61,83.07,270.61,80.07Zm4.64-.07c0-2.24-.54-3.79-1.8-3.79-1.06,0-1.82,1.43-1.82,3.79s.66,3.86,1.79,3.86C274.75,83.86,275.25,82.13,275.25,80Z"/><path d="M277.22,80.07c0-3.14,1.23-4.66,2.91-4.66s2.74,1.6,2.74,4.54c0,3.12-1.09,4.73-2.88,4.73C278.36,84.68,277.22,83.07,277.22,80.07Zm4.64-.07c0-2.24-.53-3.79-1.79-3.79-1.07,0-1.83,1.43-1.83,3.79s.66,3.86,1.79,3.86C281.36,83.86,281.86,82.13,281.86,80Z"/><path d="M257.41,143.91v-8h0l-1.48.85-.24-.74,1.86-1.05h.85v9Z"/><path d="M264,143.91v-8h0l-1.48.85-.24-.74,1.86-1.05H265v9Z"/><path d="M268.24,138.39a.71.71,0,1,1,.7.77A.72.72,0,0,1,268.24,138.39Zm0,4.9a.71.71,0,1,1,1.41,0,.71.71,0,1,1-1.41,0Z"/><path d="M270.61,139.44c0-3.14,1.22-4.66,2.9-4.66s2.75,1.61,2.75,4.54c0,3.12-1.09,4.73-2.88,4.73C271.75,144.05,270.61,142.44,270.61,139.44Zm4.64-.07c0-2.24-.54-3.79-1.8-3.79-1.06,0-1.82,1.43-1.82,3.79s.66,3.86,1.79,3.86C274.75,143.23,275.25,141.51,275.25,139.37Z"/><path d="M277.22,139.44c0-3.14,1.23-4.66,2.91-4.66s2.74,1.61,2.74,4.54c0,3.12-1.09,4.73-2.88,4.73C278.36,144.05,277.22,142.44,277.22,139.44Zm4.64-.07c0-2.24-.53-3.79-1.79-3.79-1.07,0-1.83,1.43-1.83,3.79s.66,3.86,1.79,3.86C281.36,143.23,281.86,141.51,281.86,139.37Z"/><path d="M257.41,204.2v-8h0l-1.48.85-.24-.74,1.86-1h.85v9Z"/><path d="M266.8,204.2h-5.31v-.62l.88-.92c2.13-2.16,3.21-3.47,3.21-4.93a1.62,1.62,0,0,0-1.71-1.85,3,3,0,0,0-1.8.75l-.34-.7a3.52,3.52,0,0,1,2.33-.87,2.39,2.39,0,0,1,2.53,2.55c0,1.69-1.19,3.13-3,5l-.71.75v0h4Z"/><path d="M268.24,198.68a.71.71,0,1,1,.7.77A.71.71,0,0,1,268.24,198.68Zm0,4.9a.71.71,0,1,1,1.41,0,.71.71,0,1,1-1.41,0Z"/><path d="M270.61,199.73c0-3.14,1.22-4.66,2.9-4.66s2.75,1.61,2.75,4.54c0,3.12-1.09,4.73-2.88,4.73C271.75,204.34,270.61,202.73,270.61,199.73Zm4.64-.07c0-2.24-.54-3.79-1.8-3.79-1.06,0-1.82,1.43-1.82,3.79s.66,3.86,1.79,3.86C274.75,203.52,275.25,201.8,275.25,199.66Z"/><path d="M277.22,199.73c0-3.14,1.23-4.66,2.91-4.66s2.74,1.61,2.74,4.54c0,3.12-1.09,4.73-2.88,4.73C278.36,204.34,277.22,202.73,277.22,199.73Zm4.64-.07c0-2.24-.53-3.79-1.79-3.79-1.07,0-1.83,1.43-1.83,3.79s.66,3.86,1.79,3.86C281.36,203.52,281.86,201.8,281.86,199.66Z"/><path d="M257.41,264v-8h0l-1.48.85-.24-.75,1.86-1h.85v9Z"/><path d="M264.67,259.18a2.29,2.29,0,0,1,1.95,2.32c0,1.43-1,2.68-3,2.68a3.92,3.92,0,0,1-2.12-.58l.3-.77a3.51,3.51,0,0,0,1.83.54,1.82,1.82,0,0,0,2-1.88c0-1.32-1.11-1.92-2.29-1.92h-.59v-.74h.59a1.84,1.84,0,0,0,2-1.67,1.39,1.39,0,0,0-1.55-1.45,2.92,2.92,0,0,0-1.64.59l-.3-.73a3.72,3.72,0,0,1,2.14-.68A2.12,2.12,0,0,1,266.3,257a2.27,2.27,0,0,1-1.63,2.12Z"/><path d="M268.24,258.52a.71.71,0,1,1,.7.76A.7.7,0,0,1,268.24,258.52Zm0,4.9a.71.71,0,1,1,.7.76A.71.71,0,0,1,268.24,263.42Z"/><path d="M270.61,259.57c0-3.14,1.22-4.66,2.9-4.66s2.75,1.6,2.75,4.54c0,3.12-1.09,4.73-2.88,4.73C271.75,264.18,270.61,262.57,270.61,259.57Zm4.64-.07c0-2.24-.54-3.79-1.8-3.79-1.06,0-1.82,1.43-1.82,3.79s.66,3.86,1.79,3.86C274.75,263.36,275.25,261.63,275.25,259.5Z"/><path d="M277.22,259.57c0-3.14,1.23-4.66,2.91-4.66s2.74,1.6,2.74,4.54c0,3.12-1.09,4.73-2.88,4.73C278.36,264.18,277.22,262.57,277.22,259.57Zm4.64-.07c0-2.24-.53-3.79-1.79-3.79-1.07,0-1.83,1.43-1.83,3.79s.66,3.86,1.79,3.86C281.36,263.36,281.86,261.63,281.86,259.5Z"/><path d="M257.41,324.36v-8.05h0l-1.48.85-.24-.74,1.86-1h.85v9Z"/><path d="M266,324.36h-.94v-2.52h-3.93v-.63l3.84-5.83h1v5.69h1.23v.77H266Zm-3.86-3.29h2.92v-3.19c0-.49,0-1,0-1.44h0c-.28.56-.5.94-.72,1.35l-2.2,3.26Z"/><path d="M268.24,318.84a.71.71,0,1,1,1.41,0,.71.71,0,1,1-1.41,0Zm0,4.91a.71.71,0,1,1,.7.75A.7.7,0,0,1,268.24,323.75Z"/><path d="M270.61,319.9c0-3.14,1.22-4.67,2.9-4.67s2.75,1.61,2.75,4.55c0,3.12-1.09,4.72-2.88,4.72C271.75,324.5,270.61,322.9,270.61,319.9Zm4.64-.07c0-2.25-.54-3.79-1.8-3.79-1.06,0-1.82,1.42-1.82,3.79s.66,3.86,1.79,3.86C274.75,323.69,275.25,322,275.25,319.83Z"/><path d="M277.22,319.9c0-3.14,1.23-4.67,2.91-4.67s2.74,1.61,2.74,4.55c0,3.12-1.09,4.72-2.88,4.72C278.36,324.5,277.22,322.9,277.22,319.9Zm4.64-.07c0-2.25-.53-3.79-1.79-3.79-1.07,0-1.83,1.42-1.83,3.79s.66,3.86,1.79,3.86C281.36,323.69,281.86,322,281.86,319.83Z"/><path d="M257.41,383.78v-8h0l-1.48.85-.24-.74,1.86-1h.85v9Z"/><path d="M266.48,374.79v.83h-3.23l-.37,2.55a4.3,4.3,0,0,1,.7-.05,2.76,2.76,0,0,1,3,2.76,3,3,0,0,1-3.09,3,4,4,0,0,1-2.07-.53l.29-.78a3.33,3.33,0,0,0,1.78.51,2,2,0,0,0,2.08-2.12c0-1.24-.79-2.1-2.47-2.1A7,7,0,0,0,262,379l.57-4.19Z"/><path d="M268.24,378.26a.71.71,0,1,1,.7.77A.71.71,0,0,1,268.24,378.26Zm0,4.91a.71.71,0,1,1,.7.75A.7.7,0,0,1,268.24,383.17Z"/><path d="M270.61,379.32c0-3.15,1.22-4.67,2.9-4.67s2.75,1.61,2.75,4.55c0,3.11-1.09,4.72-2.88,4.72C271.75,383.92,270.61,382.31,270.61,379.32Zm4.64-.08c0-2.24-.54-3.78-1.8-3.78-1.06,0-1.82,1.42-1.82,3.78s.66,3.87,1.79,3.87C274.75,383.11,275.25,381.38,275.25,379.24Z"/><path d="M277.22,379.32c0-3.15,1.23-4.67,2.91-4.67s2.74,1.61,2.74,4.55c0,3.11-1.09,4.72-2.88,4.72C278.36,383.92,277.22,382.31,277.22,379.32Zm4.64-.08c0-2.24-.53-3.78-1.79-3.78-1.07,0-1.83,1.42-1.83,3.78s.66,3.87,1.79,3.87C281.36,383.11,281.86,381.38,281.86,379.24Z"/><path d="M257.41,443.54v-8.05h0l-1.48.86-.24-.75,1.86-1h.85v9Z"/><path d="M262.42,438.78a2.49,2.49,0,0,1,2.09-1.1,2.57,2.57,0,0,1,2.55,2.86,2.88,2.88,0,0,1-2.76,3.15c-1.75,0-2.93-1.46-2.93-3.78s1.13-4.93,4-5.41a6.4,6.4,0,0,1,.84-.08v.82a3.77,3.77,0,0,0-3.88,3.54Zm3.63,1.84c0-1.38-.74-2.19-1.82-2.19a2,2,0,0,0-1.86,1.71c0,1.64.71,2.77,1.95,2.77C265.37,442.91,266.05,442,266.05,440.62Z"/><path d="M268.24,438a.71.71,0,1,1,.7.77A.71.71,0,0,1,268.24,438Zm0,4.91a.71.71,0,1,1,.7.76A.71.71,0,0,1,268.24,442.93Z"/><path d="M270.61,439.08c0-3.14,1.22-4.66,2.9-4.66s2.75,1.6,2.75,4.54c0,3.12-1.09,4.73-2.88,4.73C271.75,443.69,270.61,442.08,270.61,439.08Zm4.64-.07c0-2.24-.54-3.79-1.8-3.79-1.06,0-1.82,1.43-1.82,3.79s.66,3.86,1.79,3.86C274.75,442.87,275.25,441.14,275.25,439Z"/><path d="M277.22,439.08c0-3.14,1.23-4.66,2.91-4.66s2.74,1.6,2.74,4.54c0,3.12-1.09,4.73-2.88,4.73C278.36,443.69,277.22,442.08,277.22,439.08Zm4.64-.07c0-2.24-.53-3.79-1.79-3.79-1.07,0-1.83,1.43-1.83,3.79s.66,3.86,1.79,3.86C281.36,442.87,281.86,441.14,281.86,439Z"/><path d="M257.41,504.91v-8.05h0l-1.48.85-.24-.74,1.86-1.05h.85v9Z"/><path d="M261.66,495.92h5.26v.64l-3.75,8.35h-1l3.76-8.14v0h-4.25Z"/><path d="M268.24,499.39a.71.71,0,1,1,.7.77A.72.72,0,0,1,268.24,499.39Zm0,4.9a.71.71,0,1,1,1.41,0,.71.71,0,1,1-1.41,0Z"/><path d="M270.61,500.44c0-3.14,1.22-4.66,2.9-4.66s2.75,1.61,2.75,4.54c0,3.12-1.09,4.73-2.88,4.73C271.75,505.05,270.61,503.44,270.61,500.44Zm4.64-.07c0-2.24-.54-3.79-1.8-3.79-1.06,0-1.82,1.43-1.82,3.79s.66,3.86,1.79,3.86C274.75,504.23,275.25,502.51,275.25,500.37Z"/><path d="M277.22,500.44c0-3.14,1.23-4.66,2.91-4.66s2.74,1.61,2.74,4.54c0,3.12-1.09,4.73-2.88,4.73C278.36,505.05,277.22,503.44,277.22,500.44Zm4.64-.07c0-2.24-.53-3.79-1.79-3.79-1.07,0-1.83,1.43-1.83,3.79s.66,3.86,1.79,3.86C281.36,504.23,281.86,502.51,281.86,500.37Z"/><path d="M257.41,564.76v-8h0l-1.48.85-.24-.74,1.86-1h.85v9Z"/><path d="M263.16,560a2.26,2.26,0,0,1-1.4-2,2.36,2.36,0,0,1,2.54-2.34,2.2,2.2,0,0,1,2.41,2.19,2.36,2.36,0,0,1-1.48,2.12v0a2.54,2.54,0,0,1,1.79,2.35,2.63,2.63,0,0,1-2.83,2.56,2.5,2.5,0,0,1-2.77-2.38,2.65,2.65,0,0,1,1.74-2.47Zm2.84,2.45c0-1.13-.75-1.71-1.94-2.09a2.11,2.11,0,0,0-1.62,2,1.7,1.7,0,0,0,1.76,1.8A1.67,1.67,0,0,0,266,562.45Zm-3.3-4.57c0,1,.68,1.48,1.67,1.78a1.92,1.92,0,0,0,1.37-1.76,1.42,1.42,0,0,0-1.48-1.54A1.47,1.47,0,0,0,262.7,557.88Z"/><path d="M268.24,559.24a.71.71,0,1,1,1.41,0,.71.71,0,1,1-1.41,0Zm0,4.91a.71.71,0,1,1,1.41,0,.71.71,0,1,1-1.41,0Z"/><path d="M270.61,560.3c0-3.14,1.22-4.67,2.9-4.67s2.75,1.61,2.75,4.55c0,3.12-1.09,4.72-2.88,4.72C271.75,564.9,270.61,563.3,270.61,560.3Zm4.64-.07c0-2.25-.54-3.79-1.8-3.79-1.06,0-1.82,1.42-1.82,3.79s.66,3.86,1.79,3.86C274.75,564.09,275.25,562.36,275.25,560.23Z"/><path d="M277.22,560.3c0-3.14,1.23-4.67,2.91-4.67s2.74,1.61,2.74,4.55c0,3.12-1.09,4.72-2.88,4.72C278.36,564.9,277.22,563.3,277.22,560.3Zm4.64-.07c0-2.25-.53-3.79-1.79-3.79-1.07,0-1.83,1.42-1.83,3.79s.66,3.86,1.79,3.86C281.36,564.09,281.86,562.36,281.86,560.23Z"/><path d="M257.41,624.63v-8h0l-1.48.86-.24-.75,1.86-1h.85v9Z"/><path d="M266,620.39a2.53,2.53,0,0,1-2.06,1,2.5,2.5,0,0,1-2.48-2.72,2.94,2.94,0,0,1,2.84-3.15c1.68,0,2.75,1.46,2.75,3.75,0,3-1.52,5.06-3.82,5.42a4.84,4.84,0,0,1-1.07.08v-.82a5.57,5.57,0,0,0,.93-.06c1.51-.22,2.65-1.44,2.95-3.49Zm-3.54-1.79a1.79,1.79,0,0,0,1.72,2,1.81,1.81,0,0,0,1.86-1.47c0-1.72-.64-2.89-1.82-2.89S262.47,617.26,262.47,618.6Z"/><path d="M268.25,619.12a.71.71,0,0,1,.71-.77.77.77,0,0,1,0,1.53A.71.71,0,0,1,268.25,619.12Zm0,4.9a.72.72,0,0,1,.71-.77.77.77,0,1,1-.71.77Z"/><path d="M270.62,620.17c0-3.14,1.23-4.66,2.91-4.66s2.74,1.6,2.74,4.54c0,3.12-1.09,4.73-2.88,4.73C271.76,624.78,270.62,623.17,270.62,620.17Zm4.64-.07c0-2.24-.54-3.79-1.79-3.79-1.07,0-1.83,1.43-1.83,3.79s.66,3.86,1.79,3.86C274.76,624,275.26,622.23,275.26,620.1Z"/><path d="M277.24,620.17c0-3.14,1.22-4.66,2.9-4.66s2.74,1.6,2.74,4.54c0,3.12-1.09,4.73-2.88,4.73C278.37,624.78,277.24,623.17,277.24,620.17Zm4.64-.07c0-2.24-.54-3.79-1.8-3.79-1.07,0-1.83,1.43-1.83,3.79S278.91,624,280,624C281.37,624,281.88,622.23,281.88,620.1Z"/><path d="M260.19,684.51h-5.31v-.62l.87-.92c2.14-2.16,3.22-3.47,3.22-4.93a1.62,1.62,0,0,0-1.72-1.85,3,3,0,0,0-1.79.75l-.34-.7a3.52,3.52,0,0,1,2.33-.87,2.39,2.39,0,0,1,2.53,2.55c0,1.69-1.19,3.13-3.05,5l-.71.75v0h4Z"/><path d="M261.38,680c0-3.14,1.23-4.66,2.91-4.66S267,677,267,679.92c0,3.12-1.09,4.73-2.88,4.73C262.52,684.65,261.38,683,261.38,680ZM266,680c0-2.24-.53-3.79-1.79-3.79-1.07,0-1.83,1.43-1.83,3.79s.66,3.86,1.79,3.86C265.52,683.83,266,682.11,266,680Z"/><path d="M268.24,679a.71.71,0,1,1,1.41,0,.71.71,0,1,1-1.41,0Zm0,4.9a.71.71,0,1,1,1.41,0,.71.71,0,0,1-.71.76A.7.7,0,0,1,268.24,683.89Z"/><path d="M270.61,680c0-3.14,1.22-4.66,2.9-4.66s2.75,1.61,2.75,4.54c0,3.12-1.09,4.73-2.88,4.73C271.75,684.65,270.61,683,270.61,680Zm4.64-.07c0-2.24-.54-3.79-1.8-3.79-1.06,0-1.82,1.43-1.82,3.79s.66,3.86,1.79,3.86C274.75,683.83,275.25,682.11,275.25,680Z"/><path d="M277.22,680c0-3.14,1.23-4.66,2.9-4.66s2.75,1.61,2.75,4.54c0,3.12-1.09,4.73-2.88,4.73C278.36,684.65,277.22,683,277.22,680Zm4.64-.07c0-2.24-.54-3.79-1.79-3.79-1.07,0-1.83,1.43-1.83,3.79s.66,3.86,1.79,3.86C281.36,683.83,281.86,682.11,281.86,680Z"/><path d="M260.19,744.65h-5.31V744l.87-.92c2.14-2.16,3.22-3.47,3.22-4.93a1.62,1.62,0,0,0-1.72-1.85,3,3,0,0,0-1.79.75l-.34-.7a3.52,3.52,0,0,1,2.33-.87,2.39,2.39,0,0,1,2.53,2.55c0,1.69-1.19,3.13-3.05,5l-.71.75v0h4Z"/><path d="M264,744.65v-8h0l-1.48.85-.24-.74,1.86-1.05H265v9Z"/><path d="M268.24,739.13a.71.71,0,1,1,1.41,0,.71.71,0,1,1-1.41,0Zm0,4.9a.71.71,0,1,1,1.41,0,.71.71,0,0,1-.71.76A.7.7,0,0,1,268.24,744Z"/><path d="M270.61,740.18c0-3.14,1.22-4.66,2.9-4.66s2.75,1.61,2.75,4.54c0,3.12-1.09,4.73-2.88,4.73C271.75,744.79,270.61,743.18,270.61,740.18Zm4.64-.07c0-2.24-.54-3.79-1.8-3.79-1.06,0-1.82,1.43-1.82,3.79s.66,3.86,1.79,3.86C274.75,744,275.25,742.25,275.25,740.11Z"/><path d="M277.22,740.18c0-3.14,1.23-4.66,2.9-4.66s2.75,1.61,2.75,4.54c0,3.12-1.09,4.73-2.88,4.73C278.36,744.79,277.22,743.18,277.22,740.18Zm4.64-.07c0-2.24-.54-3.79-1.79-3.79-1.07,0-1.83,1.43-1.83,3.79S278.9,744,280,744C281.36,744,281.86,742.25,281.86,740.11Z"/><path d="M55.7,13a.76.76,0,0,1,1.52,0v6.16c0,7.6-5,10-5.52,10a.7.7,0,0,1-.66-.74.76.76,0,0,1,.4-.66c3-1.7,4.26-4.58,4.26-8.7Zm4.88-.26a.75.75,0,0,1,1.5,0V26.25a.51.51,0,0,0,.54.56c.34,0,4.32-1.08,5.5-6.32a.74.74,0,0,1,.72-.66.82.82,0,0,1,.8.86,10,10,0,0,1-6.12,7.54,3.07,3.07,0,0,1-1.14.24c-1,0-1.8-.64-1.8-2.06Z"/><path d="M72.84,21.11a.71.71,0,1,1,0-1.42H87.16a.71.71,0,0,1,0,1.42Z"/><path d="M93.28,28.41a1.58,1.58,0,0,1-1.68-1.68,2,2,0,0,1,.28-1A95.68,95.68,0,0,0,98.3,12.63a.83.83,0,0,1,.76-.58.78.78,0,0,1,.8.78c0,.62-3.64,8.56-6.6,13.42a.75.75,0,0,0-.08.32c0,.2.08.38.28.38a105.94,105.94,0,0,0,12.46-1.7,41.47,41.47,0,0,0-3.3-5.68.91.91,0,0,1-.16-.46.64.64,0,0,1,.66-.62.76.76,0,0,1,.62.34c2.18,3,5,8.46,5,9.24a.83.83,0,0,1-.78.86.7.7,0,0,1-.64-.44c-.26-.52-.46-1.26-.82-1.94C103,27.33,94.14,28.41,93.28,28.41Z"/><path d="M120.16,14.31c0-.2-.06-.28-.18-.28a.83.83,0,0,0-.36.14c-2,1.16-2.4,1.38-2.76,1.38a.8.8,0,0,1-.8-.8.69.69,0,0,1,.38-.62c.82-.42,2.6-1.42,3.46-1.92a1.48,1.48,0,0,1,.82-.24.91.91,0,0,1,1,.82V28a.79.79,0,0,1-1.58,0Z"/><path d="M175.7,13a.76.76,0,0,1,1.52,0v6.16c0,7.6-5,10-5.52,10a.7.7,0,0,1-.66-.74.76.76,0,0,1,.4-.66c3-1.7,4.26-4.58,4.26-8.7Zm4.88-.26a.75.75,0,0,1,1.5,0V26.25a.51.51,0,0,0,.54.56c.34,0,4.32-1.08,5.5-6.32a.74.74,0,0,1,.72-.66.82.82,0,0,1,.8.86,10,10,0,0,1-6.12,7.54,3.07,3.07,0,0,1-1.14.24c-1,0-1.8-.64-1.8-2.06Z"/><path d="M192.84,21.11a.71.71,0,1,1,0-1.42h14.32a.71.71,0,0,1,0,1.42Z"/><path d="M213.28,28.41a1.58,1.58,0,0,1-1.68-1.68,2,2,0,0,1,.28-1,95.68,95.68,0,0,0,6.42-13.06.83.83,0,0,1,.76-.58.78.78,0,0,1,.8.78c0,.62-3.64,8.56-6.6,13.42a.75.75,0,0,0-.08.32c0,.2.08.38.28.38a105.94,105.94,0,0,0,12.46-1.7,41.47,41.47,0,0,0-3.3-5.68.91.91,0,0,1-.16-.46.64.64,0,0,1,.66-.62.76.76,0,0,1,.62.34c2.18,3,5,8.46,5,9.24a.83.83,0,0,1-.78.86.7.7,0,0,1-.64-.44c-.26-.52-.46-1.26-.82-1.94C223,27.33,214.14,28.41,213.28,28.41Z"/><path d="M235,28.53c-1.24,0-1.72-.54-1.72-1.18a2.09,2.09,0,0,1,.72-1.46c2.28-2.12,5.68-4.1,8.4-6a4.55,4.55,0,0,0,2.2-3.48c0-2-2-3.16-4.4-3.16a6.23,6.23,0,0,0-5,2.18.94.94,0,0,1-.76.42.8.8,0,0,1-.8-.78c0-.86,2.48-3.22,6.58-3.22,3.62,0,5.94,2,5.94,4.6a5.76,5.76,0,0,1-2.94,4.66c-2.48,1.66-6,3.74-7.9,5.56a.44.44,0,0,0-.18.3c0,.1.12.2.44.2l10.16-.06h0a.7.7,0,0,1,.74.72.71.71,0,0,1-.76.74Z"/></svg>